<?xml version="1.0" standalone="no"?>
<!DOCTYPE svg PUBLIC "-//W3C//DTD SVG 1.1//EN" "http://www.w3.org/Graphics/SVG/1.1/DTD/svg11.dtd">
<svg width="89mm" height="130mm" viewBox="0 0 89 130" xmlns="http://www.w3.org/2000/svg" version="1.1">
<title>OpenSCAD Model</title>
<path d="
M 47.6891,82.6 L 40.8764,70.8 L 47.6891,59 L 61.3146,59 L 68.1273,47.2 L 61.3146,35.4
 L 68.1273,23.6 L 81.7528,23.6 L 88.5655,11.8 L 81.7528,-0 L 68.1273,-0 L 61.3146,11.8
 L 47.6891,11.8 L 40.8764,-0 L 27.2509,-0 L 20.4382,11.8 L 6.81273,11.8 L 0,23.6
 L 6.81273,35.4 L 0,47.2 L 6.81273,59 L 0,70.8 L 6.81273,82.6 L 0,94.4
 L 6.81273,106.2 L 0,118 L 6.81273,129.8 L 20.4382,129.8 L 27.2509,118 L 20.4382,106.2
 L 27.2509,94.4 L 40.8764,94.4 z
M 69.1665,1.79999 L 80.7136,1.79999 L 86.4871,11.8 L 80.7136,21.8 L 69.1665,21.8 L 63.393,11.8
 z
M 28.2901,21.8 L 22.5166,11.8 L 28.2901,1.79999 L 39.8372,1.79999 L 45.6107,11.8 L 39.8372,21.8
 z
M 48.7283,13.6 L 60.2754,13.6 L 66.0489,23.6 L 60.2754,33.6 L 48.7283,33.6 L 42.9548,23.6
 z
M 28.2901,45.4 L 22.5166,35.4 L 28.2901,25.4 L 39.8372,25.4 L 45.6107,35.4 L 39.8372,45.4
 z
M 7.85194,57.2 L 2.07845,47.2 L 7.85194,37.2 L 19.399,37.2 L 25.1725,47.2 L 19.399,57.2
 z
M 28.2901,69 L 22.5166,59 L 28.2901,49 L 39.8372,49 L 45.6107,59 L 39.8372,69
 z
M 7.85194,80.8 L 2.07845,70.8 L 7.85194,60.8 L 19.399,60.8 L 25.1725,70.8 L 19.399,80.8
 z
M 7.85194,104.4 L 2.07845,94.4 L 7.85194,84.4 L 19.399,84.4 L 25.1725,94.4 L 19.399,104.4
 z
M 7.85194,13.6 L 19.399,13.6 L 25.1725,23.6 L 19.399,33.6 L 7.85194,33.6 L 2.07845,23.6
 z
M 48.7283,37.2 L 60.2754,37.2 L 66.0489,47.2 L 60.2754,57.2 L 48.7283,57.2 L 42.9548,47.2
 z
M 28.2901,72.6 L 39.8372,72.6 L 45.6107,82.6 L 39.8372,92.6 L 28.2901,92.6 L 22.5166,82.6
 z
M 7.85194,108 L 19.399,108 L 25.1725,118 L 19.399,128 L 7.85194,128 L 2.07845,118
 z
" stroke="black" fill="lightgray" stroke-width="0.5"/>
</svg>
