<?xml version="1.0" standalone="no"?>
<!DOCTYPE svg PUBLIC "-//W3C//DTD SVG 1.1//EN" "http://www.w3.org/Graphics/SVG/1.1/DTD/svg11.dtd">
<svg width="130mm" height="83mm" viewBox="61 0 130 83" xmlns="http://www.w3.org/2000/svg" version="1.1">
<title>OpenSCAD Model</title>
<path d="
M 88.5655,35.4 L 102.191,35.4 L 109.004,47.2 L 122.629,47.2 L 129.442,35.4 L 143.067,35.4
 L 149.88,47.2 L 163.506,47.2 L 170.318,59 L 163.506,70.8 L 170.318,82.6 L 183.944,82.6
 L 190.757,70.8 L 183.944,59 L 190.757,47.2 L 183.944,35.4 L 190.757,23.6 L 183.944,11.8
 L 170.318,11.8 L 163.506,-0 L 149.88,-0 L 143.067,11.8 L 129.442,11.8 L 122.629,-0
 L 109.004,-0 L 102.191,11.8 L 88.5655,11.8 L 81.7528,-0 L 68.1273,-0 L 61.3146,11.8
 L 68.1273,23.6 L 81.7528,23.6 z
M 69.1665,1.79999 L 80.7136,1.79999 L 86.4871,11.8 L 80.7136,21.8 L 69.1665,21.8 L 63.393,11.8
 z
M 150.919,21.8 L 145.146,11.8 L 150.919,1.79999 L 162.466,1.79999 L 168.24,11.8 L 162.466,21.8
 z
M 110.043,21.8 L 104.269,11.8 L 110.043,1.79999 L 121.59,1.79999 L 127.363,11.8 L 121.59,21.8
 z
M 171.358,33.6 L 165.584,23.6 L 171.358,13.6 L 182.905,13.6 L 188.678,23.6 L 182.905,33.6
 z
M 130.481,33.6 L 124.708,23.6 L 130.481,13.6 L 142.028,13.6 L 147.802,23.6 L 142.028,33.6
 z
M 150.919,45.4 L 145.146,35.4 L 150.919,25.4 L 162.466,25.4 L 168.24,35.4 L 162.466,45.4
 z
M 171.358,57.2 L 165.584,47.2 L 171.358,37.2 L 182.905,37.2 L 188.678,47.2 L 182.905,57.2
 z
M 171.358,80.8 L 165.584,70.8 L 171.358,60.8 L 182.905,60.8 L 188.678,70.8 L 182.905,80.8
 z
M 89.6048,13.6 L 101.152,13.6 L 106.925,23.6 L 101.152,33.6 L 89.6048,33.6 L 83.8312,23.6
 z
M 127.363,35.4 L 121.59,45.4 L 110.043,45.4 L 104.269,35.4 L 110.043,25.4 L 121.59,25.4
 z
" stroke="black" fill="lightgray" stroke-width="0.5"/>
</svg>
