<?xml version="1.0" standalone="no"?>
<!DOCTYPE svg PUBLIC "-//W3C//DTD SVG 1.1//EN" "http://www.w3.org/Graphics/SVG/1.1/DTD/svg11.dtd">
<svg width="191mm" height="225mm" viewBox="0 0 191 225" xmlns="http://www.w3.org/2000/svg" version="1.1">
<title>OpenSCAD Model</title>
<path d="
M 47.6891,35.4 L 40.8764,47.2 L 27.2509,47.2 L 20.4382,59 L 27.2509,70.8 L 20.4382,82.6
 L 6.81273,82.6 L 0,94.4 L 6.81273,106.2 L 0,118 L 6.81273,129.8 L 0,141.6
 L 6.81273,153.4 L 0,165.2 L 6.81273,177 L 0,188.8 L 6.81273,200.6 L 0,212.4
 L 6.81273,224.2 L 20.4382,224.2 L 27.2509,212.4 L 40.8764,212.4 L 47.6891,224.2 L 61.3146,224.2
 L 68.1273,212.4 L 81.7528,212.4 L 88.5655,200.6 L 81.7528,188.8 L 88.5655,177 L 102.191,177
 L 109.004,165.2 L 122.629,165.2 L 129.442,153.4 L 122.629,141.6 L 129.442,129.8 L 122.629,118
 L 129.442,106.2 L 143.067,106.2 L 149.88,94.4 L 143.067,82.6 L 149.88,70.8 L 143.067,59
 L 149.88,47.2 L 163.506,47.2 L 170.318,35.4 L 163.506,23.6 L 170.318,11.8 L 183.944,11.8
 L 190.757,-0 L 40.8764,-0 L 47.6891,11.8 L 40.8764,23.6 z
M 65.0097,1.79999 L 60.2754,10 L 48.7283,10 L 43.9941,1.79999 z
M 110.043,21.8 L 104.269,11.8 L 110.043,1.79999 L 121.59,1.79999 L 127.363,11.8 L 121.59,21.8
 z
M 130.481,10 L 125.747,1.79999 L 146.762,1.79999 L 142.028,10 z
M 69.1665,21.8 L 63.393,11.8 L 69.1665,1.79999 L 80.7136,1.79999 L 86.4871,11.8 L 80.7136,21.8
 z
M 150.919,21.8 L 145.146,11.8 L 150.919,1.79999 L 162.466,1.79999 L 168.24,11.8 L 162.466,21.8
 z
M 105.886,1.79999 L 101.152,10 L 89.6048,10 L 84.8705,1.79999 z
M 171.358,10 L 166.623,1.79999 L 187.639,1.79999 L 182.905,10 z
M 130.481,33.6 L 124.708,23.6 L 130.481,13.6 L 142.028,13.6 L 147.802,23.6 L 142.028,33.6
 z
M 48.7283,33.6 L 42.9548,23.6 L 48.7283,13.6 L 60.2754,13.6 L 66.0489,23.6 L 60.2754,33.6
 z
M 89.6048,13.6 L 101.152,13.6 L 106.925,23.6 L 101.152,33.6 L 89.6048,33.6 L 83.8312,23.6
 z
M 69.1665,45.4 L 63.393,35.4 L 69.1665,25.4 L 80.7136,25.4 L 86.4871,35.4 L 80.7136,45.4
 z
M 110.043,45.4 L 104.269,35.4 L 110.043,25.4 L 121.59,25.4 L 127.363,35.4 L 121.59,45.4
 z
M 150.919,45.4 L 145.146,35.4 L 150.919,25.4 L 162.466,25.4 L 168.24,35.4 L 162.466,45.4
 z
M 130.481,57.2 L 124.708,47.2 L 130.481,37.2 L 142.028,37.2 L 147.802,47.2 L 142.028,57.2
 z
M 89.6048,37.2 L 101.152,37.2 L 106.925,47.2 L 101.152,57.2 L 89.6048,57.2 L 83.8312,47.2
 z
M 48.7283,37.2 L 60.2754,37.2 L 66.0489,47.2 L 60.2754,57.2 L 48.7283,57.2 L 42.9548,47.2
 z
M 69.1665,49 L 80.7136,49 L 86.4871,59 L 80.7136,69 L 69.1665,69 L 63.393,59
 z
M 110.043,69 L 104.269,59 L 110.043,49 L 121.59,49 L 127.363,59 L 121.59,69
 z
M 89.6048,60.8 L 101.152,60.8 L 106.925,70.8 L 101.152,80.8 L 89.6048,80.8 L 83.8312,70.8
 z
M 48.7283,80.8 L 42.9548,70.8 L 48.7283,60.8 L 60.2754,60.8 L 66.0489,70.8 L 60.2754,80.8
 z
M 130.481,80.8 L 124.708,70.8 L 130.481,60.8 L 142.028,60.8 L 147.802,70.8 L 142.028,80.8
 z
M 110.043,92.6 L 104.269,82.6 L 110.043,72.6 L 121.59,72.6 L 127.363,82.6 L 121.59,92.6
 z
M 28.2901,72.6 L 39.8372,72.6 L 45.6107,82.6 L 39.8372,92.6 L 28.2901,92.6 L 22.5166,82.6
 z
M 69.1665,72.6 L 80.7136,72.6 L 86.4871,82.6 L 80.7136,92.6 L 69.1665,92.6 L 63.393,82.6
 z
M 130.481,104.4 L 124.708,94.4 L 130.481,84.4 L 142.028,84.4 L 147.802,94.4 L 142.028,104.4
 z
M 89.6048,84.4 L 101.152,84.4 L 106.925,94.4 L 101.152,104.4 L 89.6048,104.4 L 83.8312,94.4
 z
M 48.7283,84.4 L 60.2754,84.4 L 66.0489,94.4 L 60.2754,104.4 L 48.7283,104.4 L 42.9548,94.4
 z
M 110.043,116.2 L 104.269,106.2 L 110.043,96.2 L 121.59,96.2 L 127.363,106.2 L 121.59,116.2
 z
M 69.1665,116.2 L 63.393,106.2 L 69.1665,96.2 L 80.7136,96.2 L 86.4871,106.2 L 80.7136,116.2
 z
M 28.2901,96.2 L 39.8372,96.2 L 45.6107,106.2 L 39.8372,116.2 L 28.2901,116.2 L 22.5166,106.2
 z
M 7.85194,128 L 2.07845,118 L 7.85194,108 L 19.399,108 L 25.1725,118 L 19.399,128
 z
M 48.7283,108 L 60.2754,108 L 66.0489,118 L 60.2754,128 L 48.7283,128 L 42.9548,118
 z
M 89.6048,108 L 101.152,108 L 106.925,118 L 101.152,128 L 89.6048,128 L 83.8312,118
 z
M 110.043,139.8 L 104.269,129.8 L 110.043,119.8 L 121.59,119.8 L 127.363,129.8 L 121.59,139.8
 z
M 69.1665,139.8 L 63.393,129.8 L 69.1665,119.8 L 80.7136,119.8 L 86.4871,129.8 L 80.7136,139.8
 z
M 28.2901,139.8 L 22.5166,129.8 L 28.2901,119.8 L 39.8372,119.8 L 45.6107,129.8 L 39.8372,139.8
 z
M 89.6048,151.6 L 83.8312,141.6 L 89.6048,131.6 L 101.152,131.6 L 106.925,141.6 L 101.152,151.6
 z
M 48.7283,151.6 L 42.9548,141.6 L 48.7283,131.6 L 60.2754,131.6 L 66.0489,141.6 L 60.2754,151.6
 z
M 110.043,163.4 L 104.269,153.4 L 110.043,143.4 L 121.59,143.4 L 127.363,153.4 L 121.59,163.4
 z
M 28.2901,143.4 L 39.8372,143.4 L 45.6107,153.4 L 39.8372,163.4 L 28.2901,163.4 L 22.5166,153.4
 z
M 69.1665,163.4 L 63.393,153.4 L 69.1665,143.4 L 80.7136,143.4 L 86.4871,153.4 L 80.7136,163.4
 z
M 89.6048,175.2 L 83.8312,165.2 L 89.6048,155.2 L 101.152,155.2 L 106.925,165.2 L 101.152,175.2
 z
M 48.7283,175.2 L 42.9548,165.2 L 48.7283,155.2 L 60.2754,155.2 L 66.0489,165.2 L 60.2754,175.2
 z
M 28.2901,187 L 22.5166,177 L 28.2901,167 L 39.8372,167 L 45.6107,177 L 39.8372,187
 z
M 69.1665,167 L 80.7136,167 L 86.4871,177 L 80.7136,187 L 69.1665,187 L 63.393,177
 z
M 48.7283,178.8 L 60.2754,178.8 L 66.0489,188.8 L 60.2754,198.8 L 48.7283,198.8 L 42.9548,188.8
 z
M 7.85194,198.8 L 2.07845,188.8 L 7.85194,178.8 L 19.399,178.8 L 25.1725,188.8 L 19.399,198.8
 z
M 28.2901,210.6 L 22.5166,200.6 L 28.2901,190.6 L 39.8372,190.6 L 45.6107,200.6 L 39.8372,210.6
 z
M 69.1665,210.6 L 63.393,200.6 L 69.1665,190.6 L 80.7136,190.6 L 86.4871,200.6 L 80.7136,210.6
 z
M 28.2901,49 L 39.8372,49 L 45.6107,59 L 39.8372,69 L 28.2901,69 L 22.5166,59
 z
M 7.85194,84.4 L 19.399,84.4 L 25.1725,94.4 L 19.399,104.4 L 7.85194,104.4 L 2.07845,94.4
 z
M 7.85194,131.6 L 19.399,131.6 L 25.1725,141.6 L 19.399,151.6 L 7.85194,151.6 L 2.07845,141.6
 z
M 7.85194,155.2 L 19.399,155.2 L 25.1725,165.2 L 19.399,175.2 L 7.85194,175.2 L 2.07845,165.2
 z
M 7.85194,202.4 L 19.399,202.4 L 25.1725,212.4 L 19.399,222.4 L 7.85194,222.4 L 2.07845,212.4
 z
M 48.7283,202.4 L 60.2754,202.4 L 66.0489,212.4 L 60.2754,222.4 L 48.7283,222.4 L 42.9548,212.4
 z
" stroke="black" fill="lightgray" stroke-width="0.5"/>
</svg>
