<?xml version="1.0" standalone="no"?>
<!DOCTYPE svg PUBLIC "-//W3C//DTD SVG 1.1//EN" "http://www.w3.org/Graphics/SVG/1.1/DTD/svg11.dtd">
<svg width="171mm" height="59mm" viewBox="27 0 171 59" xmlns="http://www.w3.org/2000/svg" version="1.1">
<title>OpenSCAD Model</title>
<path d="
M 136.255,59 L 149.88,59 L 156.693,47.2 L 170.318,47.2 L 177.131,59 L 190.757,59
 L 197.569,47.2 L 190.757,35.4 L 197.569,23.6 L 190.757,11.8 L 197.569,-0 L 34.0637,-0
 L 27.2509,11.8 L 34.0637,23.6 L 47.6891,23.6 L 54.5019,35.4 L 68.1273,35.4 L 74.9401,47.2
 L 88.5655,47.2 L 95.3783,59 L 109.004,59 L 115.816,47.2 L 129.442,47.2 z
M 116.856,25.4 L 128.403,25.4 L 134.176,35.4 L 128.403,45.4 L 116.856,45.4 L 111.082,35.4
 z
M 137.294,10 L 132.56,1.79999 L 153.575,1.79999 L 148.841,10 z
M 116.856,1.79999 L 128.403,1.79999 L 134.176,11.8 L 128.403,21.8 L 116.856,21.8 L 111.082,11.8
 z
M 157.732,1.79999 L 169.279,1.79999 L 175.053,11.8 L 169.279,21.8 L 157.732,21.8 L 151.959,11.8
 z
M 75.9793,21.8 L 70.2058,11.8 L 75.9793,1.79999 L 87.5263,1.79999 L 93.2998,11.8 L 87.5263,21.8
 z
M 112.699,1.79999 L 107.965,10 L 96.4175,10 L 91.6832,1.79999 z
M 178.17,10 L 173.436,1.79999 L 194.452,1.79999 L 189.717,10 z
M 35.1029,21.8 L 29.3294,11.8 L 35.1029,1.79999 L 46.6499,1.79999 L 52.4234,11.8 L 46.6499,21.8
 z
M 55.5411,10 L 50.8068,1.79999 L 71.8224,1.79999 L 67.0881,10 z
M 137.294,13.6 L 148.841,13.6 L 154.614,23.6 L 148.841,33.6 L 137.294,33.6 L 131.52,23.6
 z
M 96.4175,13.6 L 107.965,13.6 L 113.738,23.6 L 107.965,33.6 L 96.4175,33.6 L 90.644,23.6
 z
M 55.5411,33.6 L 49.7676,23.6 L 55.5411,13.6 L 67.0881,13.6 L 72.8616,23.6 L 67.0881,33.6
 z
M 178.17,33.6 L 172.397,23.6 L 178.17,13.6 L 189.717,13.6 L 195.491,23.6 L 189.717,33.6
 z
M 75.9793,45.4 L 70.2058,35.4 L 75.9793,25.4 L 87.5263,25.4 L 93.2998,35.4 L 87.5263,45.4
 z
M 137.294,57.2 L 131.52,47.2 L 137.294,37.2 L 148.841,37.2 L 154.614,47.2 L 148.841,57.2
 z
M 178.17,57.2 L 172.397,47.2 L 178.17,37.2 L 189.717,37.2 L 195.491,47.2 L 189.717,57.2
 z
M 157.732,25.4 L 169.279,25.4 L 175.053,35.4 L 169.279,45.4 L 157.732,45.4 L 151.959,35.4
 z
M 96.4175,37.2 L 107.965,37.2 L 113.738,47.2 L 107.965,57.2 L 96.4175,57.2 L 90.644,47.2
 z
" stroke="black" fill="lightgray" stroke-width="0.5"/>
</svg>
