<?xml version="1.0" standalone="no"?>
<!DOCTYPE svg PUBLIC "-//W3C//DTD SVG 1.1//EN" "http://www.w3.org/Graphics/SVG/1.1/DTD/svg11.dtd">
<svg width="130mm" height="83mm" viewBox="0 0 130 83" xmlns="http://www.w3.org/2000/svg" version="1.1">
<title>OpenSCAD Model</title>
<path d="
M 27.2509,11.8 L 40.8764,11.8 L 47.6891,23.6 L 61.3146,23.6 L 68.1273,11.8 L 81.7528,11.8
 L 88.5655,23.6 L 81.7528,35.4 L 88.5655,47.2 L 102.191,47.2 L 109.004,59 L 102.191,70.8
 L 109.004,82.6 L 122.629,82.6 L 129.442,70.8 L 122.629,59 L 129.442,47.2 L 122.629,35.4
 L 129.442,23.6 L 122.629,11.8 L 129.442,-0 L 6.81273,-0 L 0,11.8 L 6.81273,23.6
 L 20.4382,23.6 z
M 44.5715,1.79999 L 39.8372,10 L 28.2901,10 L 23.5559,1.79999 z
M 110.043,10 L 105.309,1.79999 L 126.324,1.79999 L 121.59,10 z
M 110.043,33.6 L 104.269,23.6 L 110.043,13.6 L 121.59,13.6 L 127.363,23.6 L 121.59,33.6
 z
M 89.6048,45.4 L 83.8312,35.4 L 89.6048,25.4 L 101.152,25.4 L 106.925,35.4 L 101.152,45.4
 z
M 110.043,57.2 L 104.269,47.2 L 110.043,37.2 L 121.59,37.2 L 127.363,47.2 L 121.59,57.2
 z
M 110.043,80.8 L 104.269,70.8 L 110.043,60.8 L 121.59,60.8 L 127.363,70.8 L 121.59,80.8
 z
M 85.4479,1.79999 L 80.7136,10 L 69.1665,10 L 64.4323,1.79999 z
M 7.85194,1.79999 L 19.399,1.79999 L 25.1725,11.8 L 19.399,21.8 L 7.85194,21.8 L 2.07845,11.8
 z
M 48.7283,1.79999 L 60.2754,1.79999 L 66.0489,11.8 L 60.2754,21.8 L 48.7283,21.8 L 42.9548,11.8
 z
M 89.6048,1.79999 L 101.152,1.79999 L 106.925,11.8 L 101.152,21.8 L 89.6048,21.8 L 83.8312,11.8
 z
" stroke="black" fill="lightgray" stroke-width="0.5"/>
</svg>
