<?xml version="1.0" standalone="no"?>
<!DOCTYPE svg PUBLIC "-//W3C//DTD SVG 1.1//EN" "http://www.w3.org/Graphics/SVG/1.1/DTD/svg11.dtd">
<svg width="110mm" height="60mm" viewBox="61 165 110 60" xmlns="http://www.w3.org/2000/svg" version="1.1">
<title>OpenSCAD Model</title>
<path d="
M 88.5655,212.4 L 102.191,212.4 L 109.004,224.2 L 122.629,224.2 L 129.442,212.4 L 143.067,212.4
 L 149.88,224.2 L 163.506,224.2 L 170.318,212.4 L 163.506,200.6 L 149.88,200.6 L 143.067,188.8
 L 129.442,188.8 L 122.629,177 L 109.004,177 L 102.191,165.2 L 88.5655,165.2 L 81.7528,177
 L 68.1273,177 L 61.3146,188.8 L 68.1273,200.6 L 61.3146,212.4 L 68.1273,224.2 L 81.7528,224.2
 z
M 69.1665,202.4 L 80.7136,202.4 L 86.4871,212.4 L 80.7136,222.4 L 69.1665,222.4 L 63.393,212.4
 z
M 89.6048,187 L 83.8312,177 L 89.6048,167 L 101.152,167 L 106.925,177 L 101.152,187
 z
M 69.1665,198.8 L 63.393,188.8 L 69.1665,178.8 L 80.7136,178.8 L 86.4871,188.8 L 80.7136,198.8
 z
M 110.043,198.8 L 104.269,188.8 L 110.043,178.8 L 121.59,178.8 L 127.363,188.8 L 121.59,198.8
 z
M 130.481,210.6 L 124.708,200.6 L 130.481,190.6 L 142.028,190.6 L 147.802,200.6 L 142.028,210.6
 z
M 89.6048,210.6 L 83.8312,200.6 L 89.6048,190.6 L 101.152,190.6 L 106.925,200.6 L 101.152,210.6
 z
M 150.919,222.4 L 145.146,212.4 L 150.919,202.4 L 162.466,202.4 L 168.24,212.4 L 162.466,222.4
 z
M 110.043,222.4 L 104.269,212.4 L 110.043,202.4 L 121.59,202.4 L 127.363,212.4 L 121.59,222.4
 z
" stroke="black" fill="lightgray" stroke-width="0.5"/>
</svg>
