<?xml version="1.0" standalone="no"?>
<!DOCTYPE svg PUBLIC "-//W3C//DTD SVG 1.1//EN" "http://www.w3.org/Graphics/SVG/1.1/DTD/svg11.dtd">
<svg width="48mm" height="83mm" viewBox="0 0 48 83" xmlns="http://www.w3.org/2000/svg" version="1.1">
<title>OpenSCAD Model</title>
<path d="
M 47.6891,35.4 L 40.8764,23.6 L 47.6891,11.8 L 40.8764,-0 L 0,-0 L 6.81273,11.8
 L 0,23.6 L 6.81273,35.4 L 0,47.2 L 6.81273,59 L 0,70.8 L 6.81273,82.6
 L 20.4382,82.6 L 27.2509,70.8 L 20.4382,59 L 27.2509,47.2 L 40.8764,47.2 z
M 24.1333,1.79999 L 19.399,10 L 7.85194,10 L 3.11766,1.79999 z
M 28.2901,21.8 L 22.5166,11.8 L 28.2901,1.79999 L 39.8372,1.79999 L 45.6107,11.8 L 39.8372,21.8
 z
M 7.85194,57.2 L 2.07845,47.2 L 7.85194,37.2 L 19.399,37.2 L 25.1725,47.2 L 19.399,57.2
 z
M 7.85194,13.6 L 19.399,13.6 L 25.1725,23.6 L 19.399,33.6 L 7.85194,33.6 L 2.07845,23.6
 z
M 28.2901,25.4 L 39.8372,25.4 L 45.6107,35.4 L 39.8372,45.4 L 28.2901,45.4 L 22.5166,35.4
 z
M 7.85194,60.8 L 19.399,60.8 L 25.1725,70.8 L 19.399,80.8 L 7.85194,80.8 L 2.07845,70.8
 z
" stroke="black" fill="lightgray" stroke-width="0.5"/>
</svg>
