<?xml version="1.0" standalone="no"?>
<!DOCTYPE svg PUBLIC "-//W3C//DTD SVG 1.1//EN" "http://www.w3.org/Graphics/SVG/1.1/DTD/svg11.dtd">
<svg width="191mm" height="131mm" viewBox="0 11 191 131" xmlns="http://www.w3.org/2000/svg" version="1.1">
<title>OpenSCAD Model</title>
<path d="
M 88.5655,129.8 L 102.191,129.8 L 109.004,141.6 L 122.629,141.6 L 129.442,129.8 L 143.067,129.8
 L 149.88,141.6 L 163.506,141.6 L 170.318,129.8 L 183.944,129.8 L 190.757,118 L 183.944,106.2
 L 190.757,94.4 L 183.944,82.6 L 190.757,70.8 L 183.944,59 L 170.318,59 L 163.506,70.8
 L 149.88,70.8 L 143.067,59 L 129.442,59 L 122.629,47.2 L 129.442,35.4 L 122.629,23.6
 L 109.004,23.6 L 102.191,11.8 L 88.5655,11.8 L 81.7528,23.6 L 68.1273,23.6 L 61.3146,35.4
 L 47.6891,35.4 L 40.8764,23.6 L 27.2509,23.6 L 20.4382,11.8 L 6.81273,11.8 L 0,23.6
 L 6.81273,35.4 L 0,47.2 L 6.81273,59 L 0,70.8 L 6.81273,82.6 L 0,94.4
 L 6.81273,106.2 L 20.4382,106.2 L 27.2509,118 L 40.8764,118 L 47.6891,129.8 L 61.3146,129.8
 L 68.1273,118 L 81.7528,118 z
M 7.85194,37.2 L 19.399,37.2 L 25.1725,47.2 L 19.399,57.2 L 7.85194,57.2 L 2.07845,47.2
 z
M 89.6048,33.6 L 83.8312,23.6 L 89.6048,13.6 L 101.152,13.6 L 106.925,23.6 L 101.152,33.6
 z
M 7.85194,33.6 L 2.07845,23.6 L 7.85194,13.6 L 19.399,13.6 L 25.1725,23.6 L 19.399,33.6
 z
M 110.043,45.4 L 104.269,35.4 L 110.043,25.4 L 121.59,25.4 L 127.363,35.4 L 121.59,45.4
 z
M 69.1665,25.4 L 80.7136,25.4 L 86.4871,35.4 L 80.7136,45.4 L 69.1665,45.4 L 63.393,35.4
 z
M 28.2901,25.4 L 39.8372,25.4 L 45.6107,35.4 L 39.8372,45.4 L 28.2901,45.4 L 22.5166,35.4
 z
M 89.6048,37.2 L 101.152,37.2 L 106.925,47.2 L 101.152,57.2 L 89.6048,57.2 L 83.8312,47.2
 z
M 48.7283,57.2 L 42.9548,47.2 L 48.7283,37.2 L 60.2754,37.2 L 66.0489,47.2 L 60.2754,57.2
 z
M 69.1665,49 L 80.7136,49 L 86.4871,59 L 80.7136,69 L 69.1665,69 L 63.393,59
 z
M 28.2901,49 L 39.8372,49 L 45.6107,59 L 39.8372,69 L 28.2901,69 L 22.5166,59
 z
M 110.043,69 L 104.269,59 L 110.043,49 L 121.59,49 L 127.363,59 L 121.59,69
 z
M 171.358,80.8 L 165.584,70.8 L 171.358,60.8 L 182.905,60.8 L 188.678,70.8 L 182.905,80.8
 z
M 130.481,80.8 L 124.708,70.8 L 130.481,60.8 L 142.028,60.8 L 147.802,70.8 L 142.028,80.8
 z
M 89.6048,80.8 L 83.8312,70.8 L 89.6048,60.8 L 101.152,60.8 L 106.925,70.8 L 101.152,80.8
 z
M 48.7283,80.8 L 42.9548,70.8 L 48.7283,60.8 L 60.2754,60.8 L 66.0489,70.8 L 60.2754,80.8
 z
M 110.043,92.6 L 104.269,82.6 L 110.043,72.6 L 121.59,72.6 L 127.363,82.6 L 121.59,92.6
 z
M 150.919,92.6 L 145.146,82.6 L 150.919,72.6 L 162.466,72.6 L 168.24,82.6 L 162.466,92.6
 z
M 28.2901,72.6 L 39.8372,72.6 L 45.6107,82.6 L 39.8372,92.6 L 28.2901,92.6 L 22.5166,82.6
 z
M 69.1665,92.6 L 63.393,82.6 L 69.1665,72.6 L 80.7136,72.6 L 86.4871,82.6 L 80.7136,92.6
 z
M 130.481,104.4 L 124.708,94.4 L 130.481,84.4 L 142.028,84.4 L 147.802,94.4 L 142.028,104.4
 z
M 171.358,84.4 L 182.905,84.4 L 188.678,94.4 L 182.905,104.4 L 171.358,104.4 L 165.584,94.4
 z
M 48.7283,104.4 L 42.9548,94.4 L 48.7283,84.4 L 60.2754,84.4 L 66.0489,94.4 L 60.2754,104.4
 z
M 89.6048,84.4 L 101.152,84.4 L 106.925,94.4 L 101.152,104.4 L 89.6048,104.4 L 83.8312,94.4
 z
M 110.043,116.2 L 104.269,106.2 L 110.043,96.2 L 121.59,96.2 L 127.363,106.2 L 121.59,116.2
 z
M 150.919,116.2 L 145.146,106.2 L 150.919,96.2 L 162.466,96.2 L 168.24,106.2 L 162.466,116.2
 z
M 28.2901,116.2 L 22.5166,106.2 L 28.2901,96.2 L 39.8372,96.2 L 45.6107,106.2 L 39.8372,116.2
 z
M 89.6048,128 L 83.8312,118 L 89.6048,108 L 101.152,108 L 106.925,118 L 101.152,128
 z
M 171.358,128 L 165.584,118 L 171.358,108 L 182.905,108 L 188.678,118 L 182.905,128
 z
M 130.481,128 L 124.708,118 L 130.481,108 L 142.028,108 L 147.802,118 L 142.028,128
 z
M 110.043,139.8 L 104.269,129.8 L 110.043,119.8 L 121.59,119.8 L 127.363,129.8 L 121.59,139.8
 z
M 150.919,139.8 L 145.146,129.8 L 150.919,119.8 L 162.466,119.8 L 168.24,129.8 L 162.466,139.8
 z
M 7.85194,60.8 L 19.399,60.8 L 25.1725,70.8 L 19.399,80.8 L 7.85194,80.8 L 2.07845,70.8
 z
M 7.85194,84.4 L 19.399,84.4 L 25.1725,94.4 L 19.399,104.4 L 7.85194,104.4 L 2.07845,94.4
 z
M 69.1665,96.2 L 80.7136,96.2 L 86.4871,106.2 L 80.7136,116.2 L 69.1665,116.2 L 63.393,106.2
 z
M 48.7283,108 L 60.2754,108 L 66.0489,118 L 60.2754,128 L 48.7283,128 L 42.9548,118
 z
" stroke="black" fill="lightgray" stroke-width="0.5"/>
</svg>
