<?xml version="1.0" standalone="no"?>
<!DOCTYPE svg PUBLIC "-//W3C//DTD SVG 1.1//EN" "http://www.w3.org/Graphics/SVG/1.1/DTD/svg11.dtd">
<svg width="130mm" height="131mm" viewBox="68 94 130 131" xmlns="http://www.w3.org/2000/svg" version="1.1">
<title>OpenSCAD Model</title>
<path d="
M 95.3783,129.8 L 88.5655,141.6 L 95.3783,153.4 L 109.004,153.4 L 115.816,165.2 L 129.442,165.2
 L 136.255,177 L 129.442,188.8 L 136.255,200.6 L 149.88,200.6 L 156.693,212.4 L 170.318,212.4
 L 177.131,224.2 L 190.757,224.2 L 197.569,212.4 L 190.757,200.6 L 197.569,188.8 L 190.757,177
 L 197.569,165.2 L 190.757,153.4 L 197.569,141.6 L 190.757,129.8 L 197.569,118 L 190.757,106.2
 L 177.131,106.2 L 170.318,118 L 156.693,118 L 149.88,106.2 L 136.255,106.2 L 129.442,118
 L 115.816,118 L 109.004,106.2 L 95.3783,106.2 L 88.5655,94.4 L 74.9401,94.4 L 68.1273,106.2
 L 74.9401,118 L 88.5655,118 z
M 75.9793,96.2 L 87.5263,96.2 L 93.2998,106.2 L 87.5263,116.2 L 75.9793,116.2 L 70.2058,106.2
 z
M 137.294,108 L 148.841,108 L 154.614,118 L 148.841,128 L 137.294,128 L 131.52,118
 z
M 178.17,128 L 172.397,118 L 178.17,108 L 189.717,108 L 195.491,118 L 189.717,128
 z
M 157.732,119.8 L 169.279,119.8 L 175.053,129.8 L 169.279,139.8 L 157.732,139.8 L 151.959,129.8
 z
M 116.856,119.8 L 128.403,119.8 L 134.176,129.8 L 128.403,139.8 L 116.856,139.8 L 111.082,129.8
 z
M 96.4175,151.6 L 90.644,141.6 L 96.4175,131.6 L 107.965,131.6 L 113.738,141.6 L 107.965,151.6
 z
M 178.17,151.6 L 172.397,141.6 L 178.17,131.6 L 189.717,131.6 L 195.491,141.6 L 189.717,151.6
 z
M 137.294,151.6 L 131.52,141.6 L 137.294,131.6 L 148.841,131.6 L 154.614,141.6 L 148.841,151.6
 z
M 116.856,163.4 L 111.082,153.4 L 116.856,143.4 L 128.403,143.4 L 134.176,153.4 L 128.403,163.4
 z
M 157.732,143.4 L 169.279,143.4 L 175.053,153.4 L 169.279,163.4 L 157.732,163.4 L 151.959,153.4
 z
M 178.17,175.2 L 172.397,165.2 L 178.17,155.2 L 189.717,155.2 L 195.491,165.2 L 189.717,175.2
 z
M 157.732,167 L 169.279,167 L 175.053,177 L 169.279,187 L 157.732,187 L 151.959,177
 z
M 137.294,198.8 L 131.52,188.8 L 137.294,178.8 L 148.841,178.8 L 154.614,188.8 L 148.841,198.8
 z
M 178.17,198.8 L 172.397,188.8 L 178.17,178.8 L 189.717,178.8 L 195.491,188.8 L 189.717,198.8
 z
M 178.17,222.4 L 172.397,212.4 L 178.17,202.4 L 189.717,202.4 L 195.491,212.4 L 189.717,222.4
 z
M 96.4175,108 L 107.965,108 L 113.738,118 L 107.965,128 L 96.4175,128 L 90.644,118
 z
M 137.294,155.2 L 148.841,155.2 L 154.614,165.2 L 148.841,175.2 L 137.294,175.2 L 131.52,165.2
 z
M 157.732,190.6 L 169.279,190.6 L 175.053,200.6 L 169.279,210.6 L 157.732,210.6 L 151.959,200.6
 z
" stroke="black" fill="lightgray" stroke-width="0.5"/>
</svg>
