<?xml version="1.0" standalone="no"?>
<!DOCTYPE svg PUBLIC "-//W3C//DTD SVG 1.1//EN" "http://www.w3.org/Graphics/SVG/1.1/DTD/svg11.dtd">
<svg width="191mm" height="154mm" viewBox="0 0 191 154" xmlns="http://www.w3.org/2000/svg" version="1.1">
<title>OpenSCAD Model</title>
<path d="
M 109.004,153.4 L 122.629,153.4 L 129.442,141.6 L 143.067,141.6 L 149.88,153.4 L 163.506,153.4
 L 170.318,141.6 L 183.944,141.6 L 190.757,129.8 L 183.944,118 L 190.757,106.2 L 183.944,94.4
 L 190.757,82.6 L 183.944,70.8 L 190.757,59 L 183.944,47.2 L 190.757,35.4 L 183.944,23.6
 L 170.318,23.6 L 163.506,11.8 L 149.88,11.8 L 143.067,-0 L 129.442,-0 L 122.629,11.8
 L 109.004,11.8 L 102.191,-0 L 88.5655,-0 L 81.7528,11.8 L 68.1273,11.8 L 61.3146,-0
 L 47.6891,-0 L 40.8764,11.8 L 27.2509,11.8 L 20.4382,23.6 L 27.2509,35.4 L 20.4382,47.2
 L 6.81273,47.2 L 0,59 L 6.81273,70.8 L 0,82.6 L 6.81273,94.4 L 0,106.2
 L 6.81273,118 L 0,129.8 L 6.81273,141.6 L 20.4382,141.6 L 27.2509,153.4 L 40.8764,153.4
 L 47.6891,141.6 L 61.3146,141.6 L 68.1273,153.4 L 81.7528,153.4 L 88.5655,141.6 L 102.191,141.6
 z
M 28.2901,13.6 L 39.8372,13.6 L 45.6107,23.6 L 39.8372,33.6 L 28.2901,33.6 L 22.5166,23.6
 z
M 130.481,21.8 L 124.708,11.8 L 130.481,1.79999 L 142.028,1.79999 L 147.802,11.8 L 142.028,21.8
 z
M 48.7283,21.8 L 42.9548,11.8 L 48.7283,1.79999 L 60.2754,1.79999 L 66.0489,11.8 L 60.2754,21.8
 z
M 89.6048,21.8 L 83.8312,11.8 L 89.6048,1.79999 L 101.152,1.79999 L 106.925,11.8 L 101.152,21.8
 z
M 150.919,33.6 L 145.146,23.6 L 150.919,13.6 L 162.466,13.6 L 168.24,23.6 L 162.466,33.6
 z
M 69.1665,33.6 L 63.393,23.6 L 69.1665,13.6 L 80.7136,13.6 L 86.4871,23.6 L 80.7136,33.6
 z
M 110.043,33.6 L 104.269,23.6 L 110.043,13.6 L 121.59,13.6 L 127.363,23.6 L 121.59,33.6
 z
M 171.358,25.4 L 182.905,25.4 L 188.678,35.4 L 182.905,45.4 L 171.358,45.4 L 165.584,35.4
 z
M 89.6048,45.4 L 83.8312,35.4 L 89.6048,25.4 L 101.152,25.4 L 106.925,35.4 L 101.152,45.4
 z
M 48.7283,25.4 L 60.2754,25.4 L 66.0489,35.4 L 60.2754,45.4 L 48.7283,45.4 L 42.9548,35.4
 z
M 130.481,45.4 L 124.708,35.4 L 130.481,25.4 L 142.028,25.4 L 147.802,35.4 L 142.028,45.4
 z
M 150.919,57.2 L 145.146,47.2 L 150.919,37.2 L 162.466,37.2 L 168.24,47.2 L 162.466,57.2
 z
M 69.1665,37.2 L 80.7136,37.2 L 86.4871,47.2 L 80.7136,57.2 L 69.1665,57.2 L 63.393,47.2
 z
M 110.043,57.2 L 104.269,47.2 L 110.043,37.2 L 121.59,37.2 L 127.363,47.2 L 121.59,57.2
 z
M 28.2901,57.2 L 22.5166,47.2 L 28.2901,37.2 L 39.8372,37.2 L 45.6107,47.2 L 39.8372,57.2
 z
M 130.481,69 L 124.708,59 L 130.481,49 L 142.028,49 L 147.802,59 L 142.028,69
 z
M 89.6048,49 L 101.152,49 L 106.925,59 L 101.152,69 L 89.6048,69 L 83.8312,59
 z
M 171.358,49 L 182.905,49 L 188.678,59 L 182.905,69 L 171.358,69 L 165.584,59
 z
M 48.7283,49 L 60.2754,49 L 66.0489,59 L 60.2754,69 L 48.7283,69 L 42.9548,59
 z
M 150.919,80.8 L 145.146,70.8 L 150.919,60.8 L 162.466,60.8 L 168.24,70.8 L 162.466,80.8
 z
M 28.2901,80.8 L 22.5166,70.8 L 28.2901,60.8 L 39.8372,60.8 L 45.6107,70.8 L 39.8372,80.8
 z
M 69.1665,60.8 L 80.7136,60.8 L 86.4871,70.8 L 80.7136,80.8 L 69.1665,80.8 L 63.393,70.8
 z
M 110.043,80.8 L 104.269,70.8 L 110.043,60.8 L 121.59,60.8 L 127.363,70.8 L 121.59,80.8
 z
M 130.481,92.6 L 124.708,82.6 L 130.481,72.6 L 142.028,72.6 L 147.802,82.6 L 142.028,92.6
 z
M 171.358,92.6 L 165.584,82.6 L 171.358,72.6 L 182.905,72.6 L 188.678,82.6 L 182.905,92.6
 z
M 48.7283,92.6 L 42.9548,82.6 L 48.7283,72.6 L 60.2754,72.6 L 66.0489,82.6 L 60.2754,92.6
 z
M 7.85194,92.6 L 2.07845,82.6 L 7.85194,72.6 L 19.399,72.6 L 25.1725,82.6 L 19.399,92.6
 z
M 89.6048,72.6 L 101.152,72.6 L 106.925,82.6 L 101.152,92.6 L 89.6048,92.6 L 83.8312,82.6
 z
M 110.043,104.4 L 104.269,94.4 L 110.043,84.4 L 121.59,84.4 L 127.363,94.4 L 121.59,104.4
 z
M 69.1665,104.4 L 63.393,94.4 L 69.1665,84.4 L 80.7136,84.4 L 86.4871,94.4 L 80.7136,104.4
 z
M 28.2901,84.4 L 39.8372,84.4 L 45.6107,94.4 L 39.8372,104.4 L 28.2901,104.4 L 22.5166,94.4
 z
M 150.919,104.4 L 145.146,94.4 L 150.919,84.4 L 162.466,84.4 L 168.24,94.4 L 162.466,104.4
 z
M 130.481,116.2 L 124.708,106.2 L 130.481,96.2 L 142.028,96.2 L 147.802,106.2 L 142.028,116.2
 z
M 171.358,116.2 L 165.584,106.2 L 171.358,96.2 L 182.905,96.2 L 188.678,106.2 L 182.905,116.2
 z
M 7.85194,116.2 L 2.07845,106.2 L 7.85194,96.2 L 19.399,96.2 L 25.1725,106.2 L 19.399,116.2
 z
M 48.7283,116.2 L 42.9548,106.2 L 48.7283,96.2 L 60.2754,96.2 L 66.0489,106.2 L 60.2754,116.2
 z
M 89.6048,96.2 L 101.152,96.2 L 106.925,106.2 L 101.152,116.2 L 89.6048,116.2 L 83.8312,106.2
 z
M 69.1665,108 L 80.7136,108 L 86.4871,118 L 80.7136,128 L 69.1665,128 L 63.393,118
 z
M 110.043,128 L 104.269,118 L 110.043,108 L 121.59,108 L 127.363,118 L 121.59,128
 z
M 28.2901,108 L 39.8372,108 L 45.6107,118 L 39.8372,128 L 28.2901,128 L 22.5166,118
 z
M 150.919,128 L 145.146,118 L 150.919,108 L 162.466,108 L 168.24,118 L 162.466,128
 z
M 7.85194,139.8 L 2.07845,129.8 L 7.85194,119.8 L 19.399,119.8 L 25.1725,129.8 L 19.399,139.8
 z
M 171.358,139.8 L 165.584,129.8 L 171.358,119.8 L 182.905,119.8 L 188.678,129.8 L 182.905,139.8
 z
M 130.481,139.8 L 124.708,129.8 L 130.481,119.8 L 142.028,119.8 L 147.802,129.8 L 142.028,139.8
 z
M 110.043,151.6 L 104.269,141.6 L 110.043,131.6 L 121.59,131.6 L 127.363,141.6 L 121.59,151.6
 z
M 28.2901,151.6 L 22.5166,141.6 L 28.2901,131.6 L 39.8372,131.6 L 45.6107,141.6 L 39.8372,151.6
 z
M 150.919,151.6 L 145.146,141.6 L 150.919,131.6 L 162.466,131.6 L 168.24,141.6 L 162.466,151.6
 z
M 7.85194,49 L 19.399,49 L 25.1725,59 L 19.399,69 L 7.85194,69 L 2.07845,59
 z
M 48.7283,119.8 L 60.2754,119.8 L 66.0489,129.8 L 60.2754,139.8 L 48.7283,139.8 L 42.9548,129.8
 z
M 89.6048,119.8 L 101.152,119.8 L 106.925,129.8 L 101.152,139.8 L 89.6048,139.8 L 83.8312,129.8
 z
M 69.1665,131.6 L 80.7136,131.6 L 86.4871,141.6 L 80.7136,151.6 L 69.1665,151.6 L 63.393,141.6
 z
" stroke="black" fill="lightgray" stroke-width="0.5"/>
</svg>
