<?xml version="1.0" standalone="no"?>
<!DOCTYPE svg PUBLIC "-//W3C//DTD SVG 1.1//EN" "http://www.w3.org/Graphics/SVG/1.1/DTD/svg11.dtd">
<svg width="150mm" height="119mm" viewBox="0 35 150 119" xmlns="http://www.w3.org/2000/svg" version="1.1">
<title>OpenSCAD Model</title>
<path d="
M 88.5655,129.8 L 102.191,129.8 L 109.004,141.6 L 122.629,141.6 L 129.442,129.8 L 143.067,129.8
 L 149.88,118 L 143.067,106.2 L 129.442,106.2 L 122.629,94.4 L 109.004,94.4 L 102.191,82.6
 L 88.5655,82.6 L 81.7528,94.4 L 68.1273,94.4 L 61.3146,82.6 L 47.6891,82.6 L 40.8764,70.8
 L 47.6891,59 L 40.8764,47.2 L 27.2509,47.2 L 20.4382,35.4 L 6.81273,35.4 L 0,47.2
 L 6.81273,59 L 0,70.8 L 6.81273,82.6 L 0,94.4 L 6.81273,106.2 L 0,118
 L 6.81273,129.8 L 0,141.6 L 6.81273,153.4 L 20.4382,153.4 L 27.2509,141.6 L 40.8764,141.6
 L 47.6891,153.4 L 61.3146,153.4 L 68.1273,141.6 L 81.7528,141.6 z
M 7.85194,60.8 L 19.399,60.8 L 25.1725,70.8 L 19.399,80.8 L 7.85194,80.8 L 2.07845,70.8
 z
M 7.85194,57.2 L 2.07845,47.2 L 7.85194,37.2 L 19.399,37.2 L 25.1725,47.2 L 19.399,57.2
 z
M 28.2901,69 L 22.5166,59 L 28.2901,49 L 39.8372,49 L 45.6107,59 L 39.8372,69
 z
M 28.2901,92.6 L 22.5166,82.6 L 28.2901,72.6 L 39.8372,72.6 L 45.6107,82.6 L 39.8372,92.6
 z
M 48.7283,104.4 L 42.9548,94.4 L 48.7283,84.4 L 60.2754,84.4 L 66.0489,94.4 L 60.2754,104.4
 z
M 89.6048,84.4 L 101.152,84.4 L 106.925,94.4 L 101.152,104.4 L 89.6048,104.4 L 83.8312,94.4
 z
M 28.2901,96.2 L 39.8372,96.2 L 45.6107,106.2 L 39.8372,116.2 L 28.2901,116.2 L 22.5166,106.2
 z
M 69.1665,96.2 L 80.7136,96.2 L 86.4871,106.2 L 80.7136,116.2 L 69.1665,116.2 L 63.393,106.2
 z
M 89.6048,128 L 83.8312,118 L 89.6048,108 L 101.152,108 L 106.925,118 L 101.152,128
 z
M 130.481,128 L 124.708,118 L 130.481,108 L 142.028,108 L 147.802,118 L 142.028,128
 z
M 48.7283,108 L 60.2754,108 L 66.0489,118 L 60.2754,128 L 48.7283,128 L 42.9548,118
 z
M 110.043,139.8 L 104.269,129.8 L 110.043,119.8 L 121.59,119.8 L 127.363,129.8 L 121.59,139.8
 z
M 7.85194,151.6 L 2.07845,141.6 L 7.85194,131.6 L 19.399,131.6 L 25.1725,141.6 L 19.399,151.6
 z
M 7.85194,84.4 L 19.399,84.4 L 25.1725,94.4 L 19.399,104.4 L 7.85194,104.4 L 2.07845,94.4
 z
M 127.363,106.2 L 121.59,116.2 L 110.043,116.2 L 104.269,106.2 L 110.043,96.2 L 121.59,96.2
 z
M 7.85194,108 L 19.399,108 L 25.1725,118 L 19.399,128 L 7.85194,128 L 2.07845,118
 z
M 28.2901,119.8 L 39.8372,119.8 L 45.6107,129.8 L 39.8372,139.8 L 28.2901,139.8 L 22.5166,129.8
 z
M 69.1665,119.8 L 80.7136,119.8 L 86.4871,129.8 L 80.7136,139.8 L 69.1665,139.8 L 63.393,129.8
 z
M 48.7283,131.6 L 60.2754,131.6 L 66.0489,141.6 L 60.2754,151.6 L 48.7283,151.6 L 42.9548,141.6
 z
" stroke="black" fill="lightgray" stroke-width="0.5"/>
</svg>
