<?xml version="1.0" standalone="no"?>
<!DOCTYPE svg PUBLIC "-//W3C//DTD SVG 1.1//EN" "http://www.w3.org/Graphics/SVG/1.1/DTD/svg11.dtd">
<svg width="198mm" height="225mm" viewBox="0 0 198 225" xmlns="http://www.w3.org/2000/svg" version="1.1">
<title>OpenSCAD Model</title>
<path d="
M 197.569,212.4 L 190.757,200.6 L 197.569,188.8 L 190.757,177 L 197.569,165.2 L 190.757,153.4
 L 197.569,141.6 L 190.757,129.8 L 197.569,118 L 190.757,106.2 L 197.569,94.4 L 190.757,82.6
 L 197.569,70.8 L 190.757,59 L 197.569,47.2 L 190.757,35.4 L 197.569,23.6 L 190.757,11.8
 L 177.131,11.8 L 170.318,-0 L 156.693,-0 L 149.88,11.8 L 136.255,11.8 L 129.442,-0
 L 115.816,-0 L 109.004,11.8 L 95.3783,11.8 L 88.5655,-0 L 74.9401,-0 L 68.1273,11.8
 L 54.5019,11.8 L 47.6891,-0 L 34.0637,-0 L 27.2509,11.8 L 13.6255,11.8 L 6.81273,-0
 L 0,-0 L 0,224.2 L 190.757,224.2 z
M 75.9793,1.79999 L 87.5263,1.79999 L 93.2998,11.8 L 87.5263,21.8 L 75.9793,21.8 L 70.2058,11.8
 z
M 157.732,1.79999 L 169.279,1.79999 L 175.053,11.8 L 169.279,21.8 L 157.732,21.8 L 151.959,11.8
 z
M 35.1029,1.79999 L 46.6499,1.79999 L 52.4234,11.8 L 46.6499,21.8 L 35.1029,21.8 L 29.3294,11.8
 z
M 116.856,21.8 L 111.082,11.8 L 116.856,1.79999 L 128.403,1.79999 L 134.176,11.8 L 128.403,21.8
 z
M 1.79999,21.8 L 1.79999,1.79999 L 5.7735,1.79999 L 11.547,11.8 L 5.7735,21.8 z
M 55.5411,33.6 L 49.7676,23.6 L 55.5411,13.6 L 67.0881,13.6 L 72.8616,23.6 L 67.0881,33.6
 z
M 137.294,13.6 L 148.841,13.6 L 154.614,23.6 L 148.841,33.6 L 137.294,33.6 L 131.52,23.6
 z
M 96.4175,13.6 L 107.965,13.6 L 113.738,23.6 L 107.965,33.6 L 96.4175,33.6 L 90.644,23.6
 z
M 14.6647,33.6 L 8.89117,23.6 L 14.6647,13.6 L 26.2117,13.6 L 31.9852,23.6 L 26.2117,33.6
 z
M 178.17,33.6 L 172.397,23.6 L 178.17,13.6 L 189.717,13.6 L 195.491,23.6 L 189.717,33.6
 z
M 75.9793,25.4 L 87.5263,25.4 L 93.2998,35.4 L 87.5263,45.4 L 75.9793,45.4 L 70.2058,35.4
 z
M 35.1029,45.4 L 29.3294,35.4 L 35.1029,25.4 L 46.6499,25.4 L 52.4234,35.4 L 46.6499,45.4
 z
M 1.79999,45.4 L 1.79999,25.4 L 5.7735,25.4 L 11.547,35.4 L 5.7735,45.4 z
M 116.856,45.4 L 111.082,35.4 L 116.856,25.4 L 128.403,25.4 L 134.176,35.4 L 128.403,45.4
 z
M 157.732,45.4 L 151.959,35.4 L 157.732,25.4 L 169.279,25.4 L 175.053,35.4 L 169.279,45.4
 z
M 137.294,57.2 L 131.52,47.2 L 137.294,37.2 L 148.841,37.2 L 154.614,47.2 L 148.841,57.2
 z
M 14.6647,37.2 L 26.2117,37.2 L 31.9852,47.2 L 26.2117,57.2 L 14.6647,57.2 L 8.89117,47.2
 z
M 178.17,57.2 L 172.397,47.2 L 178.17,37.2 L 189.717,37.2 L 195.491,47.2 L 189.717,57.2
 z
M 96.4175,57.2 L 90.644,47.2 L 96.4175,37.2 L 107.965,37.2 L 113.738,47.2 L 107.965,57.2
 z
M 55.5411,57.2 L 49.7676,47.2 L 55.5411,37.2 L 67.0881,37.2 L 72.8616,47.2 L 67.0881,57.2
 z
M 157.732,49 L 169.279,49 L 175.053,59 L 169.279,69 L 157.732,69 L 151.959,59
 z
M 1.79999,69 L 1.79999,49 L 5.7735,49 L 11.547,59 L 5.7735,69 z
M 116.856,49 L 128.403,49 L 134.176,59 L 128.403,69 L 116.856,69 L 111.082,59
 z
M 75.9793,49 L 87.5263,49 L 93.2998,59 L 87.5263,69 L 75.9793,69 L 70.2058,59
 z
M 35.1029,69 L 29.3294,59 L 35.1029,49 L 46.6499,49 L 52.4234,59 L 46.6499,69
 z
M 137.294,80.8 L 131.52,70.8 L 137.294,60.8 L 148.841,60.8 L 154.614,70.8 L 148.841,80.8
 z
M 96.4175,80.8 L 90.644,70.8 L 96.4175,60.8 L 107.965,60.8 L 113.738,70.8 L 107.965,80.8
 z
M 178.17,80.8 L 172.397,70.8 L 178.17,60.8 L 189.717,60.8 L 195.491,70.8 L 189.717,80.8
 z
M 14.6647,80.8 L 8.89117,70.8 L 14.6647,60.8 L 26.2117,60.8 L 31.9852,70.8 L 26.2117,80.8
 z
M 55.5411,60.8 L 67.0881,60.8 L 72.8616,70.8 L 67.0881,80.8 L 55.5411,80.8 L 49.7676,70.8
 z
M 1.79999,92.6 L 1.79999,72.6 L 5.7735,72.6 L 11.547,82.6 L 5.7735,92.6 z
M 35.1029,92.6 L 29.3294,82.6 L 35.1029,72.6 L 46.6499,72.6 L 52.4234,82.6 L 46.6499,92.6
 z
M 116.856,72.6 L 128.403,72.6 L 134.176,82.6 L 128.403,92.6 L 116.856,92.6 L 111.082,82.6
 z
M 75.9793,92.6 L 70.2058,82.6 L 75.9793,72.6 L 87.5263,72.6 L 93.2998,82.6 L 87.5263,92.6
 z
M 157.732,92.6 L 151.959,82.6 L 157.732,72.6 L 169.279,72.6 L 175.053,82.6 L 169.279,92.6
 z
M 96.4175,84.4 L 107.965,84.4 L 113.738,94.4 L 107.965,104.4 L 96.4175,104.4 L 90.644,94.4
 z
M 55.5411,104.4 L 49.7676,94.4 L 55.5411,84.4 L 67.0881,84.4 L 72.8616,94.4 L 67.0881,104.4
 z
M 137.294,104.4 L 131.52,94.4 L 137.294,84.4 L 148.841,84.4 L 154.614,94.4 L 148.841,104.4
 z
M 14.6647,104.4 L 8.89117,94.4 L 14.6647,84.4 L 26.2117,84.4 L 31.9852,94.4 L 26.2117,104.4
 z
M 178.17,104.4 L 172.397,94.4 L 178.17,84.4 L 189.717,84.4 L 195.491,94.4 L 189.717,104.4
 z
M 75.9793,96.2 L 87.5263,96.2 L 93.2998,106.2 L 87.5263,116.2 L 75.9793,116.2 L 70.2058,106.2
 z
M 116.856,96.2 L 128.403,96.2 L 134.176,106.2 L 128.403,116.2 L 116.856,116.2 L 111.082,106.2
 z
M 1.79999,116.2 L 1.79999,96.2 L 5.7735,96.2 L 11.547,106.2 L 5.7735,116.2 z
M 157.732,116.2 L 151.959,106.2 L 157.732,96.2 L 169.279,96.2 L 175.053,106.2 L 169.279,116.2
 z
M 35.1029,96.2 L 46.6499,96.2 L 52.4234,106.2 L 46.6499,116.2 L 35.1029,116.2 L 29.3294,106.2
 z
M 96.4175,108 L 107.965,108 L 113.738,118 L 107.965,128 L 96.4175,128 L 90.644,118
 z
M 55.5411,128 L 49.7676,118 L 55.5411,108 L 67.0881,108 L 72.8616,118 L 67.0881,128
 z
M 137.294,128 L 131.52,118 L 137.294,108 L 148.841,108 L 154.614,118 L 148.841,128
 z
M 14.6647,108 L 26.2117,108 L 31.9852,118 L 26.2117,128 L 14.6647,128 L 8.89117,118
 z
M 178.17,128 L 172.397,118 L 178.17,108 L 189.717,108 L 195.491,118 L 189.717,128
 z
M 75.9793,119.8 L 87.5263,119.8 L 93.2998,129.8 L 87.5263,139.8 L 75.9793,139.8 L 70.2058,129.8
 z
M 157.732,139.8 L 151.959,129.8 L 157.732,119.8 L 169.279,119.8 L 175.053,129.8 L 169.279,139.8
 z
M 35.1029,139.8 L 29.3294,129.8 L 35.1029,119.8 L 46.6499,119.8 L 52.4234,129.8 L 46.6499,139.8
 z
M 1.79999,139.8 L 1.79999,119.8 L 5.7735,119.8 L 11.547,129.8 L 5.7735,139.8 z
M 116.856,139.8 L 111.082,129.8 L 116.856,119.8 L 128.403,119.8 L 134.176,129.8 L 128.403,139.8
 z
M 14.6647,151.6 L 8.89117,141.6 L 14.6647,131.6 L 26.2117,131.6 L 31.9852,141.6 L 26.2117,151.6
 z
M 55.5411,131.6 L 67.0881,131.6 L 72.8616,141.6 L 67.0881,151.6 L 55.5411,151.6 L 49.7676,141.6
 z
M 96.4175,151.6 L 90.644,141.6 L 96.4175,131.6 L 107.965,131.6 L 113.738,141.6 L 107.965,151.6
 z
M 137.294,151.6 L 131.52,141.6 L 137.294,131.6 L 148.841,131.6 L 154.614,141.6 L 148.841,151.6
 z
M 178.17,151.6 L 172.397,141.6 L 178.17,131.6 L 189.717,131.6 L 195.491,141.6 L 189.717,151.6
 z
M 1.79999,163.4 L 1.79999,143.4 L 5.7735,143.4 L 11.547,153.4 L 5.7735,163.4 z
M 75.9793,163.4 L 70.2058,153.4 L 75.9793,143.4 L 87.5263,143.4 L 93.2998,153.4 L 87.5263,163.4
 z
M 35.1029,163.4 L 29.3294,153.4 L 35.1029,143.4 L 46.6499,143.4 L 52.4234,153.4 L 46.6499,163.4
 z
M 116.856,163.4 L 111.082,153.4 L 116.856,143.4 L 128.403,143.4 L 134.176,153.4 L 128.403,163.4
 z
M 157.732,163.4 L 151.959,153.4 L 157.732,143.4 L 169.279,143.4 L 175.053,153.4 L 169.279,163.4
 z
M 55.5411,155.2 L 67.0881,155.2 L 72.8616,165.2 L 67.0881,175.2 L 55.5411,175.2 L 49.7676,165.2
 z
M 96.4175,175.2 L 90.644,165.2 L 96.4175,155.2 L 107.965,155.2 L 113.738,165.2 L 107.965,175.2
 z
M 178.17,175.2 L 172.397,165.2 L 178.17,155.2 L 189.717,155.2 L 195.491,165.2 L 189.717,175.2
 z
M 14.6647,175.2 L 8.89117,165.2 L 14.6647,155.2 L 26.2117,155.2 L 31.9852,165.2 L 26.2117,175.2
 z
M 137.294,175.2 L 131.52,165.2 L 137.294,155.2 L 148.841,155.2 L 154.614,165.2 L 148.841,175.2
 z
M 157.732,187 L 151.959,177 L 157.732,167 L 169.279,167 L 175.053,177 L 169.279,187
 z
M 1.79999,187 L 1.79999,167 L 5.7735,167 L 11.547,177 L 5.7735,187 z
M 75.9793,187 L 70.2058,177 L 75.9793,167 L 87.5263,167 L 93.2998,177 L 87.5263,187
 z
M 35.1029,187 L 29.3294,177 L 35.1029,167 L 46.6499,167 L 52.4234,177 L 46.6499,187
 z
M 116.856,187 L 111.082,177 L 116.856,167 L 128.403,167 L 134.176,177 L 128.403,187
 z
M 137.294,178.8 L 148.841,178.8 L 154.614,188.8 L 148.841,198.8 L 137.294,198.8 L 131.52,188.8
 z
M 96.4175,198.8 L 90.644,188.8 L 96.4175,178.8 L 107.965,178.8 L 113.738,188.8 L 107.965,198.8
 z
M 55.5411,178.8 L 67.0881,178.8 L 72.8616,188.8 L 67.0881,198.8 L 55.5411,198.8 L 49.7676,188.8
 z
M 178.17,198.8 L 172.397,188.8 L 178.17,178.8 L 189.717,178.8 L 195.491,188.8 L 189.717,198.8
 z
M 14.6647,178.8 L 26.2117,178.8 L 31.9852,188.8 L 26.2117,198.8 L 14.6647,198.8 L 8.89117,188.8
 z
M 1.79999,210.6 L 1.79999,190.6 L 5.7735,190.6 L 11.547,200.6 L 5.7735,210.6 z
M 35.1029,190.6 L 46.6499,190.6 L 52.4234,200.6 L 46.6499,210.6 L 35.1029,210.6 L 29.3294,200.6
 z
M 157.732,210.6 L 151.959,200.6 L 157.732,190.6 L 169.279,190.6 L 175.053,200.6 L 169.279,210.6
 z
M 75.9793,210.6 L 70.2058,200.6 L 75.9793,190.6 L 87.5263,190.6 L 93.2998,200.6 L 87.5263,210.6
 z
M 116.856,190.6 L 128.403,190.6 L 134.176,200.6 L 128.403,210.6 L 116.856,210.6 L 111.082,200.6
 z
M 14.6647,222.4 L 8.89117,212.4 L 14.6647,202.4 L 26.2117,202.4 L 31.9852,212.4 L 26.2117,222.4
 z
M 137.294,202.4 L 148.841,202.4 L 154.614,212.4 L 148.841,222.4 L 137.294,222.4 L 131.52,212.4
 z
M 178.17,222.4 L 172.397,212.4 L 178.17,202.4 L 189.717,202.4 L 195.491,212.4 L 189.717,222.4
 z
M 55.5411,222.4 L 49.7676,212.4 L 55.5411,202.4 L 67.0881,202.4 L 72.8616,212.4 L 67.0881,222.4
 z
M 96.4175,222.4 L 90.644,212.4 L 96.4175,202.4 L 107.965,202.4 L 113.738,212.4 L 107.965,222.4
 z
M 71.245,222.4 L 75.9793,214.2 L 87.5263,214.2 L 92.2606,222.4 z
M 30.3686,222.4 L 35.1029,214.2 L 46.6499,214.2 L 51.3842,222.4 z
M 152.998,222.4 L 157.732,214.2 L 169.279,214.2 L 174.013,222.4 z
M 1.79999,222.4 L 1.79999,214.2 L 5.7735,214.2 L 10.5078,222.4 z
M 112.121,222.4 L 116.856,214.2 L 128.403,214.2 L 133.137,222.4 z
" stroke="black" fill="lightgray" stroke-width="0.5"/>
</svg>
