<?xml version="1.0" standalone="no"?>
<!DOCTYPE svg PUBLIC "-//W3C//DTD SVG 1.1//EN" "http://www.w3.org/Graphics/SVG/1.1/DTD/svg11.dtd">
<svg width="191mm" height="225mm" viewBox="0 0 191 225" xmlns="http://www.w3.org/2000/svg" version="1.1">
<title>OpenSCAD Model</title>
<path d="
M 109.004,94.4 L 122.629,94.4 L 129.442,106.2 L 143.067,106.2 L 149.88,118 L 143.067,129.8
 L 129.442,129.8 L 122.629,141.6 L 109.004,141.6 L 102.191,129.8 L 88.5655,129.8 L 81.7528,141.6
 L 68.1273,141.6 L 61.3146,153.4 L 47.6891,153.4 L 40.8764,141.6 L 27.2509,141.6 L 20.4382,153.4
 L 6.81273,153.4 L 0,165.2 L 6.81273,177 L 0,188.8 L 6.81273,200.6 L 0,212.4
 L 6.81273,224.2 L 183.944,224.2 L 190.757,212.4 L 183.944,200.6 L 190.757,188.8 L 183.944,177
 L 190.757,165.2 L 183.944,153.4 L 190.757,141.6 L 183.944,129.8 L 190.757,118 L 183.944,106.2
 L 190.757,94.4 L 183.944,82.6 L 170.318,82.6 L 163.506,70.8 L 170.318,59 L 163.506,47.2
 L 149.88,47.2 L 143.067,35.4 L 129.442,35.4 L 122.629,47.2 L 109.004,47.2 L 102.191,35.4
 L 88.5655,35.4 L 81.7528,23.6 L 68.1273,23.6 L 61.3146,11.8 L 47.6891,11.8 L 40.8764,-0
 L 27.2509,-0 L 20.4382,11.8 L 6.81273,11.8 L 0,23.6 L 6.81273,35.4 L 20.4382,35.4
 L 27.2509,47.2 L 40.8764,47.2 L 47.6891,59 L 40.8764,70.8 L 47.6891,82.6 L 61.3146,82.6
 L 68.1273,94.4 L 81.7528,94.4 L 88.5655,82.6 L 102.191,82.6 z
M 89.6048,60.8 L 101.152,60.8 L 106.925,70.8 L 101.152,80.8 L 89.6048,80.8 L 83.8312,70.8
 z
M 28.2901,1.79999 L 39.8372,1.79999 L 45.6107,11.8 L 39.8372,21.8 L 28.2901,21.8 L 22.5166,11.8
 z
M 7.85194,33.6 L 2.07845,23.6 L 7.85194,13.6 L 19.399,13.6 L 25.1725,23.6 L 19.399,33.6
 z
M 48.7283,13.6 L 60.2754,13.6 L 66.0489,23.6 L 60.2754,33.6 L 48.7283,33.6 L 42.9548,23.6
 z
M 69.1665,25.4 L 80.7136,25.4 L 86.4871,35.4 L 80.7136,45.4 L 69.1665,45.4 L 63.393,35.4
 z
M 28.2901,45.4 L 22.5166,35.4 L 28.2901,25.4 L 39.8372,25.4 L 45.6107,35.4 L 39.8372,45.4
 z
M 48.7283,57.2 L 42.9548,47.2 L 48.7283,37.2 L 60.2754,37.2 L 66.0489,47.2 L 60.2754,57.2
 z
M 130.481,57.2 L 124.708,47.2 L 130.481,37.2 L 142.028,37.2 L 147.802,47.2 L 142.028,57.2
 z
M 89.6048,57.2 L 83.8312,47.2 L 89.6048,37.2 L 101.152,37.2 L 106.925,47.2 L 101.152,57.2
 z
M 110.043,69 L 104.269,59 L 110.043,49 L 121.59,49 L 127.363,59 L 121.59,69
 z
M 150.919,69 L 145.146,59 L 150.919,49 L 162.466,49 L 168.24,59 L 162.466,69
 z
M 69.1665,69 L 63.393,59 L 69.1665,49 L 80.7136,49 L 86.4871,59 L 80.7136,69
 z
M 130.481,80.8 L 124.708,70.8 L 130.481,60.8 L 142.028,60.8 L 147.802,70.8 L 142.028,80.8
 z
M 48.7283,80.8 L 42.9548,70.8 L 48.7283,60.8 L 60.2754,60.8 L 66.0489,70.8 L 60.2754,80.8
 z
M 69.1665,92.6 L 63.393,82.6 L 69.1665,72.6 L 80.7136,72.6 L 86.4871,82.6 L 80.7136,92.6
 z
M 150.919,92.6 L 145.146,82.6 L 150.919,72.6 L 162.466,72.6 L 168.24,82.6 L 162.466,92.6
 z
M 130.481,104.4 L 124.708,94.4 L 130.481,84.4 L 142.028,84.4 L 147.802,94.4 L 142.028,104.4
 z
M 171.358,84.4 L 182.905,84.4 L 188.678,94.4 L 182.905,104.4 L 171.358,104.4 L 165.584,94.4
 z
M 150.919,116.2 L 145.146,106.2 L 150.919,96.2 L 162.466,96.2 L 168.24,106.2 L 162.466,116.2
 z
M 171.358,128 L 165.584,118 L 171.358,108 L 182.905,108 L 188.678,118 L 182.905,128
 z
M 150.919,139.8 L 145.146,129.8 L 150.919,119.8 L 162.466,119.8 L 168.24,129.8 L 162.466,139.8
 z
M 89.6048,131.6 L 101.152,131.6 L 106.925,141.6 L 101.152,151.6 L 89.6048,151.6 L 83.8312,141.6
 z
M 130.481,151.6 L 124.708,141.6 L 130.481,131.6 L 142.028,131.6 L 147.802,141.6 L 142.028,151.6
 z
M 171.358,151.6 L 165.584,141.6 L 171.358,131.6 L 182.905,131.6 L 188.678,141.6 L 182.905,151.6
 z
M 28.2901,163.4 L 22.5166,153.4 L 28.2901,143.4 L 39.8372,143.4 L 45.6107,153.4 L 39.8372,163.4
 z
M 150.919,163.4 L 145.146,153.4 L 150.919,143.4 L 162.466,143.4 L 168.24,153.4 L 162.466,163.4
 z
M 69.1665,163.4 L 63.393,153.4 L 69.1665,143.4 L 80.7136,143.4 L 86.4871,153.4 L 80.7136,163.4
 z
M 110.043,163.4 L 104.269,153.4 L 110.043,143.4 L 121.59,143.4 L 127.363,153.4 L 121.59,163.4
 z
M 171.358,175.2 L 165.584,165.2 L 171.358,155.2 L 182.905,155.2 L 188.678,165.2 L 182.905,175.2
 z
M 7.85194,175.2 L 2.07845,165.2 L 7.85194,155.2 L 19.399,155.2 L 25.1725,165.2 L 19.399,175.2
 z
M 89.6048,175.2 L 83.8312,165.2 L 89.6048,155.2 L 101.152,155.2 L 106.925,165.2 L 101.152,175.2
 z
M 130.481,175.2 L 124.708,165.2 L 130.481,155.2 L 142.028,155.2 L 147.802,165.2 L 142.028,175.2
 z
M 48.7283,155.2 L 60.2754,155.2 L 66.0489,165.2 L 60.2754,175.2 L 48.7283,175.2 L 42.9548,165.2
 z
M 150.919,187 L 145.146,177 L 150.919,167 L 162.466,167 L 168.24,177 L 162.466,187
 z
M 28.2901,187 L 22.5166,177 L 28.2901,167 L 39.8372,167 L 45.6107,177 L 39.8372,187
 z
M 69.1665,187 L 63.393,177 L 69.1665,167 L 80.7136,167 L 86.4871,177 L 80.7136,187
 z
M 110.043,187 L 104.269,177 L 110.043,167 L 121.59,167 L 127.363,177 L 121.59,187
 z
M 7.85194,198.8 L 2.07845,188.8 L 7.85194,178.8 L 19.399,178.8 L 25.1725,188.8 L 19.399,198.8
 z
M 130.481,198.8 L 124.708,188.8 L 130.481,178.8 L 142.028,178.8 L 147.802,188.8 L 142.028,198.8
 z
M 171.358,198.8 L 165.584,188.8 L 171.358,178.8 L 182.905,178.8 L 188.678,188.8 L 182.905,198.8
 z
M 48.7283,178.8 L 60.2754,178.8 L 66.0489,188.8 L 60.2754,198.8 L 48.7283,198.8 L 42.9548,188.8
 z
M 89.6048,178.8 L 101.152,178.8 L 106.925,188.8 L 101.152,198.8 L 89.6048,198.8 L 83.8312,188.8
 z
M 150.919,210.6 L 145.146,200.6 L 150.919,190.6 L 162.466,190.6 L 168.24,200.6 L 162.466,210.6
 z
M 28.2901,190.6 L 39.8372,190.6 L 45.6107,200.6 L 39.8372,210.6 L 28.2901,210.6 L 22.5166,200.6
 z
M 69.1665,190.6 L 80.7136,190.6 L 86.4871,200.6 L 80.7136,210.6 L 69.1665,210.6 L 63.393,200.6
 z
M 110.043,210.6 L 104.269,200.6 L 110.043,190.6 L 121.59,190.6 L 127.363,200.6 L 121.59,210.6
 z
M 7.85194,222.4 L 2.07845,212.4 L 7.85194,202.4 L 19.399,202.4 L 25.1725,212.4 L 19.399,222.4
 z
M 171.358,222.4 L 165.584,212.4 L 171.358,202.4 L 182.905,202.4 L 188.678,212.4 L 182.905,222.4
 z
M 48.7283,222.4 L 42.9548,212.4 L 48.7283,202.4 L 60.2754,202.4 L 66.0489,212.4 L 60.2754,222.4
 z
M 130.481,222.4 L 124.708,212.4 L 130.481,202.4 L 142.028,202.4 L 147.802,212.4 L 142.028,222.4
 z
M 39.8372,214.2 L 44.5715,222.4 L 23.5559,222.4 L 28.2901,214.2 z
M 80.7136,214.2 L 85.4479,222.4 L 64.4323,222.4 L 69.1665,214.2 z
M 146.185,222.4 L 150.919,214.2 L 162.466,214.2 L 167.201,222.4 z
M 127.363,82.6 L 121.59,92.6 L 110.043,92.6 L 104.269,82.6 L 110.043,72.6 L 121.59,72.6
 z
M 89.6048,202.4 L 101.152,202.4 L 106.925,212.4 L 101.152,222.4 L 89.6048,222.4 L 83.8312,212.4
 z
M 126.324,222.4 L 105.309,222.4 L 110.043,214.2 L 121.59,214.2 z
" stroke="black" fill="lightgray" stroke-width="0.5"/>
</svg>
