<?xml version="1.0" standalone="no"?>
<!DOCTYPE svg PUBLIC "-//W3C//DTD SVG 1.1//EN" "http://www.w3.org/Graphics/SVG/1.1/DTD/svg11.dtd">
<svg width="116mm" height="236mm" viewBox="0 0 116 236" xmlns="http://www.w3.org/2000/svg" version="1.1">
<title>OpenSCAD Model</title>
<path d="
M 68.1273,47.2 L 61.3146,59 L 68.1273,70.8 L 61.3146,82.6 L 68.1273,94.4 L 61.3146,106.2
 L 47.6891,106.2 L 40.8764,118 L 47.6891,129.8 L 40.8764,141.6 L 47.6891,153.4 L 40.8764,165.2
 L 27.2509,165.2 L 20.4382,177 L 6.81273,177 L 0,188.8 L 6.81273,200.6 L 0,212.4
 L 6.81273,224.2 L 20.4382,224.2 L 27.2509,212.4 L 40.8764,212.4 L 47.6891,224.2 L 61.3146,224.2
 L 68.1273,212.4 L 81.7528,212.4 L 88.5655,224.2 L 102.191,224.2 L 109.004,236 L 115.816,236
 L 115.816,-0 L 109.004,-0 L 102.191,11.8 L 88.5655,11.8 L 81.7528,23.6 L 88.5655,35.4
 L 81.7528,47.2 z
M 89.6048,13.6 L 101.152,13.6 L 106.925,23.6 L 101.152,33.6 L 89.6048,33.6 L 83.8312,23.6
 z
M 110.043,21.8 L 104.269,11.8 L 110.043,1.79999 L 114.016,1.79999 L 114.016,21.8 z
M 110.043,45.4 L 104.269,35.4 L 110.043,25.4 L 114.016,25.4 L 114.016,45.4 z
M 89.6048,57.2 L 83.8312,47.2 L 89.6048,37.2 L 101.152,37.2 L 106.925,47.2 L 101.152,57.2
 z
M 69.1665,69 L 63.393,59 L 69.1665,49 L 80.7136,49 L 86.4871,59 L 80.7136,69
 z
M 110.043,69 L 104.269,59 L 110.043,49 L 114.016,49 L 114.016,69 z
M 89.6048,60.8 L 101.152,60.8 L 106.925,70.8 L 101.152,80.8 L 89.6048,80.8 L 83.8312,70.8
 z
M 69.1665,92.6 L 63.393,82.6 L 69.1665,72.6 L 80.7136,72.6 L 86.4871,82.6 L 80.7136,92.6
 z
M 110.043,92.6 L 104.269,82.6 L 110.043,72.6 L 114.016,72.6 L 114.016,92.6 z
M 89.6048,104.4 L 83.8312,94.4 L 89.6048,84.4 L 101.152,84.4 L 106.925,94.4 L 101.152,104.4
 z
M 110.043,116.2 L 104.269,106.2 L 110.043,96.2 L 114.016,96.2 L 114.016,116.2 z
M 69.1665,116.2 L 63.393,106.2 L 69.1665,96.2 L 80.7136,96.2 L 86.4871,106.2 L 80.7136,116.2
 z
M 89.6048,108 L 101.152,108 L 106.925,118 L 101.152,128 L 89.6048,128 L 83.8312,118
 z
M 110.043,139.8 L 104.269,129.8 L 110.043,119.8 L 114.016,119.8 L 114.016,139.8 z
M 69.1665,119.8 L 80.7136,119.8 L 86.4871,129.8 L 80.7136,139.8 L 69.1665,139.8 L 63.393,129.8
 z
M 89.6048,151.6 L 83.8312,141.6 L 89.6048,131.6 L 101.152,131.6 L 106.925,141.6 L 101.152,151.6
 z
M 48.7283,151.6 L 42.9548,141.6 L 48.7283,131.6 L 60.2754,131.6 L 66.0489,141.6 L 60.2754,151.6
 z
M 69.1665,143.4 L 80.7136,143.4 L 86.4871,153.4 L 80.7136,163.4 L 69.1665,163.4 L 63.393,153.4
 z
M 110.043,163.4 L 104.269,153.4 L 110.043,143.4 L 114.016,143.4 L 114.016,163.4 z
M 89.6048,175.2 L 83.8312,165.2 L 89.6048,155.2 L 101.152,155.2 L 106.925,165.2 L 101.152,175.2
 z
M 48.7283,175.2 L 42.9548,165.2 L 48.7283,155.2 L 60.2754,155.2 L 66.0489,165.2 L 60.2754,175.2
 z
M 110.043,187 L 104.269,177 L 110.043,167 L 114.016,167 L 114.016,187 z
M 28.2901,187 L 22.5166,177 L 28.2901,167 L 39.8372,167 L 45.6107,177 L 39.8372,187
 z
M 69.1665,167 L 80.7136,167 L 86.4871,177 L 80.7136,187 L 69.1665,187 L 63.393,177
 z
M 89.6048,178.8 L 101.152,178.8 L 106.925,188.8 L 101.152,198.8 L 89.6048,198.8 L 83.8312,188.8
 z
M 48.7283,178.8 L 60.2754,178.8 L 66.0489,188.8 L 60.2754,198.8 L 48.7283,198.8 L 42.9548,188.8
 z
M 28.2901,210.6 L 22.5166,200.6 L 28.2901,190.6 L 39.8372,190.6 L 45.6107,200.6 L 39.8372,210.6
 z
M 69.1665,210.6 L 63.393,200.6 L 69.1665,190.6 L 80.7136,190.6 L 86.4871,200.6 L 80.7136,210.6
 z
M 110.043,210.6 L 104.269,200.6 L 110.043,190.6 L 114.016,190.6 L 114.016,210.6 z
M 110.043,234.2 L 104.269,224.2 L 110.043,214.2 L 114.016,214.2 L 114.016,234.2 z
M 48.7283,108 L 60.2754,108 L 66.0489,118 L 60.2754,128 L 48.7283,128 L 42.9548,118
 z
M 7.85194,178.8 L 19.399,178.8 L 25.1725,188.8 L 19.399,198.8 L 7.85194,198.8 L 2.07845,188.8
 z
M 7.85194,202.4 L 19.399,202.4 L 25.1725,212.4 L 19.399,222.4 L 7.85194,222.4 L 2.07845,212.4
 z
M 48.7283,202.4 L 60.2754,202.4 L 66.0489,212.4 L 60.2754,222.4 L 48.7283,222.4 L 42.9548,212.4
 z
M 89.6048,202.4 L 101.152,202.4 L 106.925,212.4 L 101.152,222.4 L 89.6048,222.4 L 83.8312,212.4
 z
" stroke="black" fill="lightgray" stroke-width="0.5"/>
</svg>
