<?xml version="1.0" standalone="no"?>
<!DOCTYPE svg PUBLIC "-//W3C//DTD SVG 1.1//EN" "http://www.w3.org/Graphics/SVG/1.1/DTD/svg11.dtd">
<svg width="150mm" height="72mm" viewBox="0 153 150 72" xmlns="http://www.w3.org/2000/svg" version="1.1">
<title>OpenSCAD Model</title>
<path d="
M 102.191,177 L 109.004,165.2 L 102.191,153.4 L 88.5655,153.4 L 81.7528,165.2 L 68.1273,165.2
 L 61.3146,177 L 68.1273,188.8 L 61.3146,200.6 L 47.6891,200.6 L 40.8764,188.8 L 27.2509,188.8
 L 20.4382,177 L 27.2509,165.2 L 20.4382,153.4 L 6.81273,153.4 L 0,165.2 L 6.81273,177
 L 0,188.8 L 6.81273,200.6 L 0,212.4 L 6.81273,224.2 L 20.4382,224.2 L 27.2509,212.4
 L 40.8764,212.4 L 47.6891,224.2 L 61.3146,224.2 L 68.1273,212.4 L 81.7528,212.4 L 88.5655,224.2
 L 102.191,224.2 L 109.004,212.4 L 122.629,212.4 L 129.442,224.2 L 143.067,224.2 L 149.88,212.4
 L 143.067,200.6 L 129.442,200.6 L 122.629,188.8 L 109.004,188.8 z
M 7.85194,155.2 L 19.399,155.2 L 25.1725,165.2 L 19.399,175.2 L 7.85194,175.2 L 2.07845,165.2
 z
M 89.6048,175.2 L 83.8312,165.2 L 89.6048,155.2 L 101.152,155.2 L 106.925,165.2 L 101.152,175.2
 z
M 69.1665,187 L 63.393,177 L 69.1665,167 L 80.7136,167 L 86.4871,177 L 80.7136,187
 z
M 7.85194,198.8 L 2.07845,188.8 L 7.85194,178.8 L 19.399,178.8 L 25.1725,188.8 L 19.399,198.8
 z
M 89.6048,198.8 L 83.8312,188.8 L 89.6048,178.8 L 101.152,178.8 L 106.925,188.8 L 101.152,198.8
 z
M 28.2901,210.6 L 22.5166,200.6 L 28.2901,190.6 L 39.8372,190.6 L 45.6107,200.6 L 39.8372,210.6
 z
M 69.1665,210.6 L 63.393,200.6 L 69.1665,190.6 L 80.7136,190.6 L 86.4871,200.6 L 80.7136,210.6
 z
M 130.481,222.4 L 124.708,212.4 L 130.481,202.4 L 142.028,202.4 L 147.802,212.4 L 142.028,222.4
 z
M 48.7283,222.4 L 42.9548,212.4 L 48.7283,202.4 L 60.2754,202.4 L 66.0489,212.4 L 60.2754,222.4
 z
M 7.85194,202.4 L 19.399,202.4 L 25.1725,212.4 L 19.399,222.4 L 7.85194,222.4 L 2.07845,212.4
 z
M 127.363,200.6 L 121.59,210.6 L 110.043,210.6 L 104.269,200.6 L 110.043,190.6 L 121.59,190.6
 z
M 89.6048,202.4 L 101.152,202.4 L 106.925,212.4 L 101.152,222.4 L 89.6048,222.4 L 83.8312,212.4
 z
" stroke="black" fill="lightgray" stroke-width="0.5"/>
</svg>
