<?xml version="1.0" standalone="no"?>
<!DOCTYPE svg PUBLIC "-//W3C//DTD SVG 1.1//EN" "http://www.w3.org/Graphics/SVG/1.1/DTD/svg11.dtd">
<svg width="191mm" height="166mm" viewBox="0 47 191 166" xmlns="http://www.w3.org/2000/svg" version="1.1">
<title>OpenSCAD Model</title>
<path d="
M 6.81273,94.4 L 0,106.2 L 6.81273,118 L 20.4382,118 L 27.2509,106.2 L 40.8764,106.2
 L 47.6891,118 L 61.3146,118 L 68.1273,106.2 L 81.7528,106.2 L 88.5655,118 L 102.191,118
 L 109.004,129.8 L 102.191,141.6 L 109.004,153.4 L 122.629,153.4 L 129.442,165.2 L 143.067,165.2
 L 149.88,177 L 163.506,177 L 170.318,188.8 L 163.506,200.6 L 170.318,212.4 L 183.944,212.4
 L 190.757,200.6 L 183.944,188.8 L 190.757,177 L 183.944,165.2 L 190.757,153.4 L 183.944,141.6
 L 170.318,141.6 L 163.506,129.8 L 149.88,129.8 L 143.067,118 L 129.442,118 L 122.629,106.2
 L 129.442,94.4 L 122.629,82.6 L 109.004,82.6 L 102.191,70.8 L 88.5655,70.8 L 81.7528,59
 L 68.1273,59 L 61.3146,47.2 L 47.6891,47.2 L 40.8764,59 L 27.2509,59 L 20.4382,47.2
 L 6.81273,47.2 L 0,59 L 6.81273,70.8 L 0,82.6 z
M 7.85194,49 L 19.399,49 L 25.1725,59 L 19.399,69 L 7.85194,69 L 2.07845,59
 z
M 48.7283,69 L 42.9548,59 L 48.7283,49 L 60.2754,49 L 66.0489,59 L 60.2754,69
 z
M 69.1665,60.8 L 80.7136,60.8 L 86.4871,70.8 L 80.7136,80.8 L 69.1665,80.8 L 63.393,70.8
 z
M 28.2901,60.8 L 39.8372,60.8 L 45.6107,70.8 L 39.8372,80.8 L 28.2901,80.8 L 22.5166,70.8
 z
M 89.6048,72.6 L 101.152,72.6 L 106.925,82.6 L 101.152,92.6 L 89.6048,92.6 L 83.8312,82.6
 z
M 48.7283,92.6 L 42.9548,82.6 L 48.7283,72.6 L 60.2754,72.6 L 66.0489,82.6 L 60.2754,92.6
 z
M 28.2901,104.4 L 22.5166,94.4 L 28.2901,84.4 L 39.8372,84.4 L 45.6107,94.4 L 39.8372,104.4
 z
M 110.043,104.4 L 104.269,94.4 L 110.043,84.4 L 121.59,84.4 L 127.363,94.4 L 121.59,104.4
 z
M 69.1665,104.4 L 63.393,94.4 L 69.1665,84.4 L 80.7136,84.4 L 86.4871,94.4 L 80.7136,104.4
 z
M 7.85194,116.2 L 2.07845,106.2 L 7.85194,96.2 L 19.399,96.2 L 25.1725,106.2 L 19.399,116.2
 z
M 110.043,128 L 104.269,118 L 110.043,108 L 121.59,108 L 127.363,118 L 121.59,128
 z
M 130.481,139.8 L 124.708,129.8 L 130.481,119.8 L 142.028,119.8 L 147.802,129.8 L 142.028,139.8
 z
M 110.043,151.6 L 104.269,141.6 L 110.043,131.6 L 121.59,131.6 L 127.363,141.6 L 121.59,151.6
 z
M 150.919,151.6 L 145.146,141.6 L 150.919,131.6 L 162.466,131.6 L 168.24,141.6 L 162.466,151.6
 z
M 171.358,163.4 L 165.584,153.4 L 171.358,143.4 L 182.905,143.4 L 188.678,153.4 L 182.905,163.4
 z
M 130.481,163.4 L 124.708,153.4 L 130.481,143.4 L 142.028,143.4 L 147.802,153.4 L 142.028,163.4
 z
M 150.919,175.2 L 145.146,165.2 L 150.919,155.2 L 162.466,155.2 L 168.24,165.2 L 162.466,175.2
 z
M 171.358,210.6 L 165.584,200.6 L 171.358,190.6 L 182.905,190.6 L 188.678,200.6 L 182.905,210.6
 z
M 7.85194,72.6 L 19.399,72.6 L 25.1725,82.6 L 19.399,92.6 L 7.85194,92.6 L 2.07845,82.6
 z
M 48.7283,96.2 L 60.2754,96.2 L 66.0489,106.2 L 60.2754,116.2 L 48.7283,116.2 L 42.9548,106.2
 z
M 89.6048,96.2 L 101.152,96.2 L 106.925,106.2 L 101.152,116.2 L 89.6048,116.2 L 83.8312,106.2
 z
M 171.358,167 L 182.905,167 L 188.678,177 L 182.905,187 L 171.358,187 L 165.584,177
 z
" stroke="black" fill="lightgray" stroke-width="0.5"/>
</svg>
