<?xml version="1.0" standalone="no"?>
<!DOCTYPE svg PUBLIC "-//W3C//DTD SVG 1.1//EN" "http://www.w3.org/Graphics/SVG/1.1/DTD/svg11.dtd">
<svg width="191mm" height="202mm" viewBox="0 23 191 202" xmlns="http://www.w3.org/2000/svg" version="1.1">
<title>OpenSCAD Model</title>
<path d="
M 183.944,118 L 190.757,106.2 L 183.944,94.4 L 170.318,94.4 L 163.506,106.2 L 149.88,106.2
 L 143.067,94.4 L 129.442,94.4 L 122.629,82.6 L 109.004,82.6 L 102.191,70.8 L 88.5655,70.8
 L 81.7528,59 L 68.1273,59 L 61.3146,47.2 L 47.6891,47.2 L 40.8764,35.4 L 27.2509,35.4
 L 20.4382,23.6 L 6.81273,23.6 L 0,35.4 L 6.81273,47.2 L 0,59 L 6.81273,70.8
 L 0,82.6 L 6.81273,94.4 L 0,106.2 L 6.81273,118 L 0,129.8 L 6.81273,141.6
 L 0,153.4 L 6.81273,165.2 L 0,177 L 6.81273,188.8 L 0,200.6 L 6.81273,212.4
 L 0,224.2 L 190.757,224.2 L 183.944,212.4 L 190.757,200.6 L 183.944,188.8 L 190.757,177
 L 183.944,165.2 L 190.757,153.4 L 183.944,141.6 L 190.757,129.8 z
M 7.85194,49 L 19.399,49 L 25.1725,59 L 19.399,69 L 7.85194,69 L 2.07845,59
 z
M 7.85194,45.4 L 2.07845,35.4 L 7.85194,25.4 L 19.399,25.4 L 25.1725,35.4 L 19.399,45.4
 z
M 28.2901,37.2 L 39.8372,37.2 L 45.6107,47.2 L 39.8372,57.2 L 28.2901,57.2 L 22.5166,47.2
 z
M 48.7283,69 L 42.9548,59 L 48.7283,49 L 60.2754,49 L 66.0489,59 L 60.2754,69
 z
M 28.2901,80.8 L 22.5166,70.8 L 28.2901,60.8 L 39.8372,60.8 L 45.6107,70.8 L 39.8372,80.8
 z
M 69.1665,80.8 L 63.393,70.8 L 69.1665,60.8 L 80.7136,60.8 L 86.4871,70.8 L 80.7136,80.8
 z
M 48.7283,92.6 L 42.9548,82.6 L 48.7283,72.6 L 60.2754,72.6 L 66.0489,82.6 L 60.2754,92.6
 z
M 89.6048,92.6 L 83.8312,82.6 L 89.6048,72.6 L 101.152,72.6 L 106.925,82.6 L 101.152,92.6
 z
M 7.85194,92.6 L 2.07845,82.6 L 7.85194,72.6 L 19.399,72.6 L 25.1725,82.6 L 19.399,92.6
 z
M 28.2901,84.4 L 39.8372,84.4 L 45.6107,94.4 L 39.8372,104.4 L 28.2901,104.4 L 22.5166,94.4
 z
M 69.1665,84.4 L 80.7136,84.4 L 86.4871,94.4 L 80.7136,104.4 L 69.1665,104.4 L 63.393,94.4
 z
M 89.6048,96.2 L 101.152,96.2 L 106.925,106.2 L 101.152,116.2 L 89.6048,116.2 L 83.8312,106.2
 z
M 48.7283,96.2 L 60.2754,96.2 L 66.0489,106.2 L 60.2754,116.2 L 48.7283,116.2 L 42.9548,106.2
 z
M 171.358,116.2 L 165.584,106.2 L 171.358,96.2 L 182.905,96.2 L 188.678,106.2 L 182.905,116.2
 z
M 130.481,116.2 L 124.708,106.2 L 130.481,96.2 L 142.028,96.2 L 147.802,106.2 L 142.028,116.2
 z
M 69.1665,108 L 80.7136,108 L 86.4871,118 L 80.7136,128 L 69.1665,128 L 63.393,118
 z
M 150.919,128 L 145.146,118 L 150.919,108 L 162.466,108 L 168.24,118 L 162.466,128
 z
M 28.2901,128 L 22.5166,118 L 28.2901,108 L 39.8372,108 L 45.6107,118 L 39.8372,128
 z
M 110.043,128 L 104.269,118 L 110.043,108 L 121.59,108 L 127.363,118 L 121.59,128
 z
M 89.6048,119.8 L 101.152,119.8 L 106.925,129.8 L 101.152,139.8 L 89.6048,139.8 L 83.8312,129.8
 z
M 130.481,139.8 L 124.708,129.8 L 130.481,119.8 L 142.028,119.8 L 147.802,129.8 L 142.028,139.8
 z
M 48.7283,139.8 L 42.9548,129.8 L 48.7283,119.8 L 60.2754,119.8 L 66.0489,129.8 L 60.2754,139.8
 z
M 110.043,151.6 L 104.269,141.6 L 110.043,131.6 L 121.59,131.6 L 127.363,141.6 L 121.59,151.6
 z
M 28.2901,131.6 L 39.8372,131.6 L 45.6107,141.6 L 39.8372,151.6 L 28.2901,151.6 L 22.5166,141.6
 z
M 150.919,151.6 L 145.146,141.6 L 150.919,131.6 L 162.466,131.6 L 168.24,141.6 L 162.466,151.6
 z
M 69.1665,131.6 L 80.7136,131.6 L 86.4871,141.6 L 80.7136,151.6 L 69.1665,151.6 L 63.393,141.6
 z
M 7.85194,163.4 L 2.07845,153.4 L 7.85194,143.4 L 19.399,143.4 L 25.1725,153.4 L 19.399,163.4
 z
M 171.358,163.4 L 165.584,153.4 L 171.358,143.4 L 182.905,143.4 L 188.678,153.4 L 182.905,163.4
 z
M 48.7283,163.4 L 42.9548,153.4 L 48.7283,143.4 L 60.2754,143.4 L 66.0489,153.4 L 60.2754,163.4
 z
M 89.6048,163.4 L 83.8312,153.4 L 89.6048,143.4 L 101.152,143.4 L 106.925,153.4 L 101.152,163.4
 z
M 130.481,163.4 L 124.708,153.4 L 130.481,143.4 L 142.028,143.4 L 147.802,153.4 L 142.028,163.4
 z
M 110.043,175.2 L 104.269,165.2 L 110.043,155.2 L 121.59,155.2 L 127.363,165.2 L 121.59,175.2
 z
M 150.919,175.2 L 145.146,165.2 L 150.919,155.2 L 162.466,155.2 L 168.24,165.2 L 162.466,175.2
 z
M 69.1665,155.2 L 80.7136,155.2 L 86.4871,165.2 L 80.7136,175.2 L 69.1665,175.2 L 63.393,165.2
 z
M 28.2901,175.2 L 22.5166,165.2 L 28.2901,155.2 L 39.8372,155.2 L 45.6107,165.2 L 39.8372,175.2
 z
M 89.6048,187 L 83.8312,177 L 89.6048,167 L 101.152,167 L 106.925,177 L 101.152,187
 z
M 48.7283,187 L 42.9548,177 L 48.7283,167 L 60.2754,167 L 66.0489,177 L 60.2754,187
 z
M 130.481,187 L 124.708,177 L 130.481,167 L 142.028,167 L 147.802,177 L 142.028,187
 z
M 171.358,187 L 165.584,177 L 171.358,167 L 182.905,167 L 188.678,177 L 182.905,187
 z
M 110.043,198.8 L 104.269,188.8 L 110.043,178.8 L 121.59,178.8 L 127.363,188.8 L 121.59,198.8
 z
M 69.1665,178.8 L 80.7136,178.8 L 86.4871,188.8 L 80.7136,198.8 L 69.1665,198.8 L 63.393,188.8
 z
M 28.2901,178.8 L 39.8372,178.8 L 45.6107,188.8 L 39.8372,198.8 L 28.2901,198.8 L 22.5166,188.8
 z
M 150.919,198.8 L 145.146,188.8 L 150.919,178.8 L 162.466,178.8 L 168.24,188.8 L 162.466,198.8
 z
M 171.358,190.6 L 182.905,190.6 L 188.678,200.6 L 182.905,210.6 L 171.358,210.6 L 165.584,200.6
 z
M 130.481,210.6 L 124.708,200.6 L 130.481,190.6 L 142.028,190.6 L 147.802,200.6 L 142.028,210.6
 z
M 7.85194,210.6 L 2.07845,200.6 L 7.85194,190.6 L 19.399,190.6 L 25.1725,200.6 L 19.399,210.6
 z
M 48.7283,190.6 L 60.2754,190.6 L 66.0489,200.6 L 60.2754,210.6 L 48.7283,210.6 L 42.9548,200.6
 z
M 89.6048,190.6 L 101.152,190.6 L 106.925,200.6 L 101.152,210.6 L 89.6048,210.6 L 83.8312,200.6
 z
M 150.919,222.4 L 145.146,212.4 L 150.919,202.4 L 162.466,202.4 L 168.24,212.4 L 162.466,222.4
 z
M 69.1665,202.4 L 80.7136,202.4 L 86.4871,212.4 L 80.7136,222.4 L 69.1665,222.4 L 63.393,212.4
 z
M 110.043,222.4 L 104.269,212.4 L 110.043,202.4 L 121.59,202.4 L 127.363,212.4 L 121.59,222.4
 z
M 28.2901,222.4 L 22.5166,212.4 L 28.2901,202.4 L 39.8372,202.4 L 45.6107,212.4 L 39.8372,222.4
 z
M 60.2754,214.2 L 65.0097,222.4 L 43.9941,222.4 L 48.7283,214.2 z
M 84.8705,222.4 L 89.6048,214.2 L 101.152,214.2 L 105.886,222.4 z
M 3.11766,222.4 L 7.85194,214.2 L 19.399,214.2 L 24.1333,222.4 z
M 166.623,222.4 L 171.358,214.2 L 182.905,214.2 L 187.639,222.4 z
M 7.85194,96.2 L 19.399,96.2 L 25.1725,106.2 L 19.399,116.2 L 7.85194,116.2 L 2.07845,106.2
 z
M 127.363,94.4 L 121.59,104.4 L 110.043,104.4 L 104.269,94.4 L 110.043,84.4 L 121.59,84.4
 z
M 7.85194,119.8 L 19.399,119.8 L 25.1725,129.8 L 19.399,139.8 L 7.85194,139.8 L 2.07845,129.8
 z
M 171.358,119.8 L 182.905,119.8 L 188.678,129.8 L 182.905,139.8 L 171.358,139.8 L 165.584,129.8
 z
M 7.85194,167 L 19.399,167 L 25.1725,177 L 19.399,187 L 7.85194,187 L 2.07845,177
 z
M 142.028,214.2 L 146.762,222.4 L 125.747,222.4 L 130.481,214.2 z
" stroke="black" fill="lightgray" stroke-width="0.5"/>
</svg>
