<?xml version="1.0" standalone="no"?>
<!DOCTYPE svg PUBLIC "-//W3C//DTD SVG 1.1//EN" "http://www.w3.org/Graphics/SVG/1.1/DTD/svg11.dtd">
<svg width="191mm" height="131mm" viewBox="0 94 191 131" xmlns="http://www.w3.org/2000/svg" version="1.1">
<title>OpenSCAD Model</title>
<path d="
M 109.004,177 L 122.629,177 L 129.442,188.8 L 143.067,188.8 L 149.88,200.6 L 163.506,200.6
 L 170.318,212.4 L 183.944,212.4 L 190.757,200.6 L 183.944,188.8 L 190.757,177 L 183.944,165.2
 L 170.318,165.2 L 163.506,153.4 L 149.88,153.4 L 143.067,141.6 L 149.88,129.8 L 143.067,118
 L 129.442,118 L 122.629,106.2 L 109.004,106.2 L 102.191,94.4 L 88.5655,94.4 L 81.7528,106.2
 L 68.1273,106.2 L 61.3146,118 L 68.1273,129.8 L 61.3146,141.6 L 47.6891,141.6 L 40.8764,153.4
 L 47.6891,165.2 L 40.8764,177 L 27.2509,177 L 20.4382,188.8 L 6.81273,188.8 L 0,200.6
 L 6.81273,212.4 L 20.4382,212.4 L 27.2509,224.2 L 40.8764,224.2 L 47.6891,212.4 L 61.3146,212.4
 L 68.1273,200.6 L 61.3146,188.8 L 68.1273,177 L 81.7528,177 L 88.5655,165.2 L 102.191,165.2
 z
M 48.7283,143.4 L 60.2754,143.4 L 66.0489,153.4 L 60.2754,163.4 L 48.7283,163.4 L 42.9548,153.4
 z
M 89.6048,96.2 L 101.152,96.2 L 106.925,106.2 L 101.152,116.2 L 89.6048,116.2 L 83.8312,106.2
 z
M 110.043,128 L 104.269,118 L 110.043,108 L 121.59,108 L 127.363,118 L 121.59,128
 z
M 69.1665,128 L 63.393,118 L 69.1665,108 L 80.7136,108 L 86.4871,118 L 80.7136,128
 z
M 89.6048,139.8 L 83.8312,129.8 L 89.6048,119.8 L 101.152,119.8 L 106.925,129.8 L 101.152,139.8
 z
M 130.481,139.8 L 124.708,129.8 L 130.481,119.8 L 142.028,119.8 L 147.802,129.8 L 142.028,139.8
 z
M 69.1665,151.6 L 63.393,141.6 L 69.1665,131.6 L 80.7136,131.6 L 86.4871,141.6 L 80.7136,151.6
 z
M 110.043,151.6 L 104.269,141.6 L 110.043,131.6 L 121.59,131.6 L 127.363,141.6 L 121.59,151.6
 z
M 130.481,163.4 L 124.708,153.4 L 130.481,143.4 L 142.028,143.4 L 147.802,153.4 L 142.028,163.4
 z
M 110.043,175.2 L 104.269,165.2 L 110.043,155.2 L 121.59,155.2 L 127.363,165.2 L 121.59,175.2
 z
M 150.919,175.2 L 145.146,165.2 L 150.919,155.2 L 162.466,155.2 L 168.24,165.2 L 162.466,175.2
 z
M 69.1665,175.2 L 63.393,165.2 L 69.1665,155.2 L 80.7136,155.2 L 86.4871,165.2 L 80.7136,175.2
 z
M 130.481,187 L 124.708,177 L 130.481,167 L 142.028,167 L 147.802,177 L 142.028,187
 z
M 171.358,187 L 165.584,177 L 171.358,167 L 182.905,167 L 188.678,177 L 182.905,187
 z
M 48.7283,167 L 60.2754,167 L 66.0489,177 L 60.2754,187 L 48.7283,187 L 42.9548,177
 z
M 28.2901,178.8 L 39.8372,178.8 L 45.6107,188.8 L 39.8372,198.8 L 28.2901,198.8 L 22.5166,188.8
 z
M 150.919,198.8 L 145.146,188.8 L 150.919,178.8 L 162.466,178.8 L 168.24,188.8 L 162.466,198.8
 z
M 48.7283,210.6 L 42.9548,200.6 L 48.7283,190.6 L 60.2754,190.6 L 66.0489,200.6 L 60.2754,210.6
 z
M 171.358,210.6 L 165.584,200.6 L 171.358,190.6 L 182.905,190.6 L 188.678,200.6 L 182.905,210.6
 z
M 89.6048,143.4 L 101.152,143.4 L 106.925,153.4 L 101.152,163.4 L 89.6048,163.4 L 83.8312,153.4
 z
M 7.85194,190.6 L 19.399,190.6 L 25.1725,200.6 L 19.399,210.6 L 7.85194,210.6 L 2.07845,200.6
 z
M 28.2901,202.4 L 39.8372,202.4 L 45.6107,212.4 L 39.8372,222.4 L 28.2901,222.4 L 22.5166,212.4
 z
" stroke="black" fill="lightgray" stroke-width="0.5"/>
</svg>
