<?xml version="1.0" standalone="no"?>
<!DOCTYPE svg PUBLIC "-//W3C//DTD SVG 1.1//EN" "http://www.w3.org/Graphics/SVG/1.1/DTD/svg11.dtd">
<svg width="198mm" height="225mm" viewBox="0 0 198 225" xmlns="http://www.w3.org/2000/svg" version="1.1">
<title>OpenSCAD Model</title>
<path d="
M 177.131,118 L 170.318,106.2 L 177.131,94.4 L 190.757,94.4 L 197.569,82.6 L 190.757,70.8
 L 197.569,59 L 190.757,47.2 L 197.569,35.4 L 190.757,23.6 L 197.569,11.8 L 190.757,-0
 L 0,-0 L 0,200.6 L 6.81273,200.6 L 13.6255,212.4 L 27.2509,212.4 L 34.0637,224.2
 L 47.6891,224.2 L 54.5019,212.4 L 68.1273,212.4 L 74.9401,224.2 L 88.5655,224.2 L 95.3783,212.4
 L 109.004,212.4 L 115.816,200.6 L 129.442,200.6 L 136.255,188.8 L 129.442,177 L 136.255,165.2
 L 149.88,165.2 L 156.693,153.4 L 149.88,141.6 L 156.693,129.8 L 170.318,129.8 z
M 157.732,108 L 169.279,108 L 175.053,118 L 169.279,128 L 157.732,128 L 151.959,118
 z
M 1.79999,10 L 1.79999,1.79999 L 10.5078,1.79999 L 5.7735,10 z
M 157.732,10 L 152.998,1.79999 L 174.013,1.79999 L 169.279,10 z
M 178.17,21.8 L 172.397,11.8 L 178.17,1.79999 L 189.717,1.79999 L 195.491,11.8 L 189.717,21.8
 z
M 92.2606,1.79999 L 87.5263,10 L 75.9793,10 L 71.245,1.79999 z
M 133.137,1.79999 L 128.403,10 L 116.856,10 L 112.121,1.79999 z
M 137.294,21.8 L 131.52,11.8 L 137.294,1.79999 L 148.841,1.79999 L 154.614,11.8 L 148.841,21.8
 z
M 96.4175,1.79999 L 107.965,1.79999 L 113.738,11.8 L 107.965,21.8 L 96.4175,21.8 L 90.644,11.8
 z
M 35.1029,10 L 30.3686,1.79999 L 51.3842,1.79999 L 46.6499,10 z
M 14.6647,21.8 L 8.89117,11.8 L 14.6647,1.79999 L 26.2117,1.79999 L 31.9852,11.8 L 26.2117,21.8
 z
M 55.5411,21.8 L 49.7676,11.8 L 55.5411,1.79999 L 67.0881,1.79999 L 72.8616,11.8 L 67.0881,21.8
 z
M 35.1029,13.6 L 46.6499,13.6 L 52.4234,23.6 L 46.6499,33.6 L 35.1029,33.6 L 29.3294,23.6
 z
M 116.856,13.6 L 128.403,13.6 L 134.176,23.6 L 128.403,33.6 L 116.856,33.6 L 111.082,23.6
 z
M 157.732,13.6 L 169.279,13.6 L 175.053,23.6 L 169.279,33.6 L 157.732,33.6 L 151.959,23.6
 z
M 1.79999,33.6 L 1.79999,13.6 L 5.7735,13.6 L 11.547,23.6 L 5.7735,33.6 z
M 75.9793,33.6 L 70.2058,23.6 L 75.9793,13.6 L 87.5263,13.6 L 93.2998,23.6 L 87.5263,33.6
 z
M 96.4175,25.4 L 107.965,25.4 L 113.738,35.4 L 107.965,45.4 L 96.4175,45.4 L 90.644,35.4
 z
M 137.294,45.4 L 131.52,35.4 L 137.294,25.4 L 148.841,25.4 L 154.614,35.4 L 148.841,45.4
 z
M 14.6647,25.4 L 26.2117,25.4 L 31.9852,35.4 L 26.2117,45.4 L 14.6647,45.4 L 8.89117,35.4
 z
M 178.17,45.4 L 172.397,35.4 L 178.17,25.4 L 189.717,25.4 L 195.491,35.4 L 189.717,45.4
 z
M 55.5411,25.4 L 67.0881,25.4 L 72.8616,35.4 L 67.0881,45.4 L 55.5411,45.4 L 49.7676,35.4
 z
M 116.856,57.2 L 111.082,47.2 L 116.856,37.2 L 128.403,37.2 L 134.176,47.2 L 128.403,57.2
 z
M 1.79999,57.2 L 1.79999,37.2 L 5.7735,37.2 L 11.547,47.2 L 5.7735,57.2 z
M 157.732,37.2 L 169.279,37.2 L 175.053,47.2 L 169.279,57.2 L 157.732,57.2 L 151.959,47.2
 z
M 35.1029,57.2 L 29.3294,47.2 L 35.1029,37.2 L 46.6499,37.2 L 52.4234,47.2 L 46.6499,57.2
 z
M 75.9793,37.2 L 87.5263,37.2 L 93.2998,47.2 L 87.5263,57.2 L 75.9793,57.2 L 70.2058,47.2
 z
M 178.17,69 L 172.397,59 L 178.17,49 L 189.717,49 L 195.491,59 L 189.717,69
 z
M 14.6647,69 L 8.89117,59 L 14.6647,49 L 26.2117,49 L 31.9852,59 L 26.2117,69
 z
M 96.4175,49 L 107.965,49 L 113.738,59 L 107.965,69 L 96.4175,69 L 90.644,59
 z
M 55.5411,49 L 67.0881,49 L 72.8616,59 L 67.0881,69 L 55.5411,69 L 49.7676,59
 z
M 137.294,69 L 131.52,59 L 137.294,49 L 148.841,49 L 154.614,59 L 148.841,69
 z
M 116.856,80.8 L 111.082,70.8 L 116.856,60.8 L 128.403,60.8 L 134.176,70.8 L 128.403,80.8
 z
M 1.79999,80.8 L 1.79999,60.8 L 5.7735,60.8 L 11.547,70.8 L 5.7735,80.8 z
M 75.9793,60.8 L 87.5263,60.8 L 93.2998,70.8 L 87.5263,80.8 L 75.9793,80.8 L 70.2058,70.8
 z
M 35.1029,80.8 L 29.3294,70.8 L 35.1029,60.8 L 46.6499,60.8 L 52.4234,70.8 L 46.6499,80.8
 z
M 157.732,60.8 L 169.279,60.8 L 175.053,70.8 L 169.279,80.8 L 157.732,80.8 L 151.959,70.8
 z
M 178.17,92.6 L 172.397,82.6 L 178.17,72.6 L 189.717,72.6 L 195.491,82.6 L 189.717,92.6
 z
M 14.6647,92.6 L 8.89117,82.6 L 14.6647,72.6 L 26.2117,72.6 L 31.9852,82.6 L 26.2117,92.6
 z
M 55.5411,92.6 L 49.7676,82.6 L 55.5411,72.6 L 67.0881,72.6 L 72.8616,82.6 L 67.0881,92.6
 z
M 96.4175,72.6 L 107.965,72.6 L 113.738,82.6 L 107.965,92.6 L 96.4175,92.6 L 90.644,82.6
 z
M 137.294,72.6 L 148.841,72.6 L 154.614,82.6 L 148.841,92.6 L 137.294,92.6 L 131.52,82.6
 z
M 1.79999,104.4 L 1.79999,84.4 L 5.7735,84.4 L 11.547,94.4 L 5.7735,104.4 z
M 157.732,104.4 L 151.959,94.4 L 157.732,84.4 L 169.279,84.4 L 175.053,94.4 L 169.279,104.4
 z
M 116.856,84.4 L 128.403,84.4 L 134.176,94.4 L 128.403,104.4 L 116.856,104.4 L 111.082,94.4
 z
M 75.9793,84.4 L 87.5263,84.4 L 93.2998,94.4 L 87.5263,104.4 L 75.9793,104.4 L 70.2058,94.4
 z
M 35.1029,104.4 L 29.3294,94.4 L 35.1029,84.4 L 46.6499,84.4 L 52.4234,94.4 L 46.6499,104.4
 z
M 14.6647,116.2 L 8.89117,106.2 L 14.6647,96.2 L 26.2117,96.2 L 31.9852,106.2 L 26.2117,116.2
 z
M 55.5411,96.2 L 67.0881,96.2 L 72.8616,106.2 L 67.0881,116.2 L 55.5411,116.2 L 49.7676,106.2
 z
M 96.4175,96.2 L 107.965,96.2 L 113.738,106.2 L 107.965,116.2 L 96.4175,116.2 L 90.644,106.2
 z
M 137.294,96.2 L 148.841,96.2 L 154.614,106.2 L 148.841,116.2 L 137.294,116.2 L 131.52,106.2
 z
M 1.79999,128 L 1.79999,108 L 5.7735,108 L 11.547,118 L 5.7735,128 z
M 75.9793,108 L 87.5263,108 L 93.2998,118 L 87.5263,128 L 75.9793,128 L 70.2058,118
 z
M 35.1029,108 L 46.6499,108 L 52.4234,118 L 46.6499,128 L 35.1029,128 L 29.3294,118
 z
M 116.856,128 L 111.082,118 L 116.856,108 L 128.403,108 L 134.176,118 L 128.403,128
 z
M 137.294,139.8 L 131.52,129.8 L 137.294,119.8 L 148.841,119.8 L 154.614,129.8 L 148.841,139.8
 z
M 14.6647,119.8 L 26.2117,119.8 L 31.9852,129.8 L 26.2117,139.8 L 14.6647,139.8 L 8.89117,129.8
 z
M 55.5411,119.8 L 67.0881,119.8 L 72.8616,129.8 L 67.0881,139.8 L 55.5411,139.8 L 49.7676,129.8
 z
M 96.4175,119.8 L 107.965,119.8 L 113.738,129.8 L 107.965,139.8 L 96.4175,139.8 L 90.644,129.8
 z
M 75.9793,151.6 L 70.2058,141.6 L 75.9793,131.6 L 87.5263,131.6 L 93.2998,141.6 L 87.5263,151.6
 z
M 35.1029,151.6 L 29.3294,141.6 L 35.1029,131.6 L 46.6499,131.6 L 52.4234,141.6 L 46.6499,151.6
 z
M 1.79999,151.6 L 1.79999,131.6 L 5.7735,131.6 L 11.547,141.6 L 5.7735,151.6 z
M 116.856,151.6 L 111.082,141.6 L 116.856,131.6 L 128.403,131.6 L 134.176,141.6 L 128.403,151.6
 z
M 137.294,163.4 L 131.52,153.4 L 137.294,143.4 L 148.841,143.4 L 154.614,153.4 L 148.841,163.4
 z
M 96.4175,143.4 L 107.965,143.4 L 113.738,153.4 L 107.965,163.4 L 96.4175,163.4 L 90.644,153.4
 z
M 14.6647,163.4 L 8.89117,153.4 L 14.6647,143.4 L 26.2117,143.4 L 31.9852,153.4 L 26.2117,163.4
 z
M 55.5411,163.4 L 49.7676,153.4 L 55.5411,143.4 L 67.0881,143.4 L 72.8616,153.4 L 67.0881,163.4
 z
M 1.79999,175.2 L 1.79999,155.2 L 5.7735,155.2 L 11.547,165.2 L 5.7735,175.2 z
M 75.9793,175.2 L 70.2058,165.2 L 75.9793,155.2 L 87.5263,155.2 L 93.2998,165.2 L 87.5263,175.2
 z
M 116.856,175.2 L 111.082,165.2 L 116.856,155.2 L 128.403,155.2 L 134.176,165.2 L 128.403,175.2
 z
M 35.1029,175.2 L 29.3294,165.2 L 35.1029,155.2 L 46.6499,155.2 L 52.4234,165.2 L 46.6499,175.2
 z
M 14.6647,187 L 8.89117,177 L 14.6647,167 L 26.2117,167 L 31.9852,177 L 26.2117,187
 z
M 96.4175,167 L 107.965,167 L 113.738,177 L 107.965,187 L 96.4175,187 L 90.644,177
 z
M 55.5411,187 L 49.7676,177 L 55.5411,167 L 67.0881,167 L 72.8616,177 L 67.0881,187
 z
M 116.856,198.8 L 111.082,188.8 L 116.856,178.8 L 128.403,178.8 L 134.176,188.8 L 128.403,198.8
 z
M 75.9793,198.8 L 70.2058,188.8 L 75.9793,178.8 L 87.5263,178.8 L 93.2998,188.8 L 87.5263,198.8
 z
M 1.79999,198.8 L 1.79999,178.8 L 5.7735,178.8 L 11.547,188.8 L 5.7735,198.8 z
M 35.1029,178.8 L 46.6499,178.8 L 52.4234,188.8 L 46.6499,198.8 L 35.1029,198.8 L 29.3294,188.8
 z
M 96.4175,210.6 L 90.644,200.6 L 96.4175,190.6 L 107.965,190.6 L 113.738,200.6 L 107.965,210.6
 z
M 55.5411,210.6 L 49.7676,200.6 L 55.5411,190.6 L 67.0881,190.6 L 72.8616,200.6 L 67.0881,210.6
 z
M 35.1029,222.4 L 29.3294,212.4 L 35.1029,202.4 L 46.6499,202.4 L 52.4234,212.4 L 46.6499,222.4
 z
M 75.9793,222.4 L 70.2058,212.4 L 75.9793,202.4 L 87.5263,202.4 L 93.2998,212.4 L 87.5263,222.4
 z
M 14.6647,190.6 L 26.2117,190.6 L 31.9852,200.6 L 26.2117,210.6 L 14.6647,210.6 L 8.89117,200.6
 z
" stroke="black" fill="lightgray" stroke-width="0.5"/>
</svg>
