<?xml version="1.0" standalone="no"?>
<!DOCTYPE svg PUBLIC "-//W3C//DTD SVG 1.1//EN" "http://www.w3.org/Graphics/SVG/1.1/DTD/svg11.dtd">
<svg width="191mm" height="131mm" viewBox="0 94 191 131" xmlns="http://www.w3.org/2000/svg" version="1.1">
<title>OpenSCAD Model</title>
<path d="
M 6.81273,141.6 L 0,153.4 L 6.81273,165.2 L 0,177 L 6.81273,188.8 L 0,200.6
 L 6.81273,212.4 L 0,224.2 L 122.629,224.2 L 129.442,212.4 L 122.629,200.6 L 109.004,200.6
 L 102.191,188.8 L 109.004,177 L 102.191,165.2 L 88.5655,165.2 L 81.7528,153.4 L 88.5655,141.6
 L 81.7528,129.8 L 68.1273,129.8 L 61.3146,118 L 47.6891,118 L 40.8764,106.2 L 27.2509,106.2
 L 20.4382,94.4 L 6.81273,94.4 L 0,106.2 L 6.81273,118 L 0,129.8 z
M 7.85194,96.2 L 19.399,96.2 L 25.1725,106.2 L 19.399,116.2 L 7.85194,116.2 L 2.07845,106.2
 z
M 28.2901,128 L 22.5166,118 L 28.2901,108 L 39.8372,108 L 45.6107,118 L 39.8372,128
 z
M 48.7283,119.8 L 60.2754,119.8 L 66.0489,129.8 L 60.2754,139.8 L 48.7283,139.8 L 42.9548,129.8
 z
M 28.2901,151.6 L 22.5166,141.6 L 28.2901,131.6 L 39.8372,131.6 L 45.6107,141.6 L 39.8372,151.6
 z
M 69.1665,131.6 L 80.7136,131.6 L 86.4871,141.6 L 80.7136,151.6 L 69.1665,151.6 L 63.393,141.6
 z
M 48.7283,163.4 L 42.9548,153.4 L 48.7283,143.4 L 60.2754,143.4 L 66.0489,153.4 L 60.2754,163.4
 z
M 28.2901,155.2 L 39.8372,155.2 L 45.6107,165.2 L 39.8372,175.2 L 28.2901,175.2 L 22.5166,165.2
 z
M 69.1665,175.2 L 63.393,165.2 L 69.1665,155.2 L 80.7136,155.2 L 86.4871,165.2 L 80.7136,175.2
 z
M 89.6048,187 L 83.8312,177 L 89.6048,167 L 101.152,167 L 106.925,177 L 101.152,187
 z
M 48.7283,187 L 42.9548,177 L 48.7283,167 L 60.2754,167 L 66.0489,177 L 60.2754,187
 z
M 69.1665,198.8 L 63.393,188.8 L 69.1665,178.8 L 80.7136,178.8 L 86.4871,188.8 L 80.7136,198.8
 z
M 28.2901,198.8 L 22.5166,188.8 L 28.2901,178.8 L 39.8372,178.8 L 45.6107,188.8 L 39.8372,198.8
 z
M 7.85194,210.6 L 2.07845,200.6 L 7.85194,190.6 L 19.399,190.6 L 25.1725,200.6 L 19.399,210.6
 z
M 89.6048,190.6 L 101.152,190.6 L 106.925,200.6 L 101.152,210.6 L 89.6048,210.6 L 83.8312,200.6
 z
M 48.7283,190.6 L 60.2754,190.6 L 66.0489,200.6 L 60.2754,210.6 L 48.7283,210.6 L 42.9548,200.6
 z
M 69.1665,202.4 L 80.7136,202.4 L 86.4871,212.4 L 80.7136,222.4 L 69.1665,222.4 L 63.393,212.4
 z
M 110.043,222.4 L 104.269,212.4 L 110.043,202.4 L 121.59,202.4 L 127.363,212.4 L 121.59,222.4
 z
M 28.2901,222.4 L 22.5166,212.4 L 28.2901,202.4 L 39.8372,202.4 L 45.6107,212.4 L 39.8372,222.4
 z
M 60.2754,214.2 L 65.0097,222.4 L 43.9941,222.4 L 48.7283,214.2 z
M 84.8705,222.4 L 89.6048,214.2 L 101.152,214.2 L 105.886,222.4 z
M 3.11766,222.4 L 7.85194,214.2 L 19.399,214.2 L 24.1333,222.4 z
M 7.85194,119.8 L 19.399,119.8 L 25.1725,129.8 L 19.399,139.8 L 7.85194,139.8 L 2.07845,129.8
 z
M 7.85194,143.4 L 19.399,143.4 L 25.1725,153.4 L 19.399,163.4 L 7.85194,163.4 L 2.07845,153.4
 z
M 7.85194,167 L 19.399,167 L 25.1725,177 L 19.399,187 L 7.85194,187 L 2.07845,177
 z
M 149.88,200.6 L 143.067,212.4 L 149.88,224.2 L 190.757,224.2 L 183.944,212.4 L 190.757,200.6
 L 183.944,188.8 L 190.757,177 L 183.944,165.2 L 170.318,165.2 L 163.506,177 L 170.318,188.8
 L 163.506,200.6 z
M 171.358,167 L 182.905,167 L 188.678,177 L 182.905,187 L 171.358,187 L 165.584,177
 z
M 171.358,190.6 L 182.905,190.6 L 188.678,200.6 L 182.905,210.6 L 171.358,210.6 L 165.584,200.6
 z
M 150.919,222.4 L 145.146,212.4 L 150.919,202.4 L 162.466,202.4 L 168.24,212.4 L 162.466,222.4
 z
M 166.623,222.4 L 171.358,214.2 L 182.905,214.2 L 187.639,222.4 z
" stroke="black" fill="lightgray" stroke-width="0.5"/>
</svg>
