<?xml version="1.0" standalone="no"?>
<!DOCTYPE svg PUBLIC "-//W3C//DTD SVG 1.1//EN" "http://www.w3.org/Graphics/SVG/1.1/DTD/svg11.dtd">
<svg width="226mm" height="192mm" viewBox="42 -251 226 192" xmlns="http://www.w3.org/2000/svg" version="1.1">
<title>OpenSCAD Model</title>
<path d="
M 255.3,-66.4353 L 255.3,-80.0607 L 267.1,-86.8735 L 267.1,-100.499 L 255.3,-107.312 L 255.3,-120.937
 L 267.1,-127.749 L 267.1,-141.375 L 255.3,-148.188 L 255.3,-161.812 L 267.1,-168.625 L 267.1,-182.251
 L 255.3,-189.063 L 255.3,-202.688 L 267.1,-209.501 L 267.1,-223.127 L 255.3,-229.939 L 255.3,-243.565
 L 243.5,-250.377 L 231.7,-243.565 L 219.9,-250.377 L 208.1,-243.565 L 196.3,-250.377 L 184.5,-243.565
 L 172.7,-250.377 L 160.9,-243.565 L 149.1,-250.377 L 137.3,-243.565 L 125.5,-250.377 L 113.7,-243.565
 L 101.9,-250.377 L 90.1,-243.565 L 78.3,-250.377 L 66.5,-243.565 L 54.7,-250.377 L 42.9,-243.565
 L 42.9,-229.939 L 54.7,-223.127 L 54.7,-209.501 L 42.9,-202.689 L 42.9,-189.063 L 54.7,-182.251
 L 54.7,-168.625 L 42.9,-161.813 L 42.9,-148.187 L 54.7,-141.375 L 54.7,-127.749 L 42.9,-120.937
 L 42.9,-107.311 L 54.7,-100.499 L 54.7,-86.8735 L 42.9,-80.0607 L 42.9,-66.4353 L 54.7,-59.6225
 L 66.5,-66.4353 L 78.3,-59.6225 L 90.1,-66.4353 L 101.9,-59.6225 L 113.7,-66.4353 L 125.5,-59.6225
 L 137.3,-66.4353 L 149.1,-59.6225 L 160.9,-66.4353 L 172.7,-59.6225 L 184.5,-66.4353 L 196.3,-59.6225
 L 208.1,-66.4353 L 219.9,-59.6225 L 231.7,-66.4353 L 243.5,-59.6225 z
M 209.9,-230.979 L 209.9,-242.526 L 219.9,-248.299 L 229.9,-242.526 L 229.9,-230.979 L 219.9,-225.205
 z
M 44.7,-230.979 L 44.7,-242.526 L 54.7,-248.299 L 64.7,-242.526 L 64.7,-230.979 L 54.7,-225.205
 z
M 68.3,-230.979 L 68.3,-242.526 L 78.3,-248.299 L 88.3,-242.526 L 88.3,-230.979 L 78.3,-225.205
 z
M 91.9,-230.979 L 91.9,-242.526 L 101.9,-248.299 L 111.9,-242.526 L 111.9,-230.979 L 101.9,-225.205
 z
M 115.5,-230.979 L 115.5,-242.526 L 125.5,-248.299 L 135.5,-242.526 L 135.5,-230.979 L 125.5,-225.205
 z
M 139.1,-230.979 L 139.1,-242.526 L 149.1,-248.299 L 159.1,-242.526 L 159.1,-230.979 L 149.1,-225.205
 z
M 162.7,-230.979 L 162.7,-242.526 L 172.7,-248.299 L 182.7,-242.526 L 182.7,-230.979 L 172.7,-225.205
 z
M 186.3,-230.979 L 186.3,-242.526 L 196.3,-248.299 L 206.3,-242.526 L 206.3,-230.979 L 196.3,-225.205
 z
M 233.5,-230.979 L 233.5,-242.526 L 243.5,-248.299 L 253.5,-242.525 L 253.5,-230.979 L 243.5,-225.205
 z
M 56.5,-210.54 L 56.5,-222.087 L 66.5,-227.861 L 76.5,-222.087 L 76.5,-210.54 L 66.5,-204.767
 z
M 221.7,-210.54 L 221.7,-222.087 L 231.7,-227.861 L 241.7,-222.087 L 241.7,-210.54 L 231.7,-204.767
 z
M 198.1,-210.54 L 198.1,-222.087 L 208.1,-227.861 L 218.1,-222.087 L 218.1,-210.54 L 208.1,-204.767
 z
M 103.7,-210.54 L 103.7,-222.087 L 113.7,-227.861 L 123.7,-222.087 L 123.7,-210.54 L 113.7,-204.767
 z
M 245.3,-210.54 L 245.3,-222.087 L 255.3,-227.861 L 265.3,-222.087 L 265.3,-210.54 L 255.3,-204.767
 z
M 127.3,-210.54 L 127.3,-222.087 L 137.3,-227.861 L 147.3,-222.087 L 147.3,-210.54 L 137.3,-204.767
 z
M 150.9,-210.54 L 150.9,-222.087 L 160.9,-227.861 L 170.9,-222.087 L 170.9,-210.54 L 160.9,-204.767
 z
M 174.5,-210.54 L 174.5,-222.087 L 184.5,-227.861 L 194.5,-222.087 L 194.5,-210.54 L 184.5,-204.767
 z
M 80.1,-210.54 L 80.1,-222.087 L 90.1,-227.861 L 100.1,-222.087 L 100.1,-210.54 L 90.1,-204.767
 z
M 44.7,-190.102 L 44.7,-201.65 L 54.7,-207.423 L 64.7,-201.65 L 64.7,-190.102 L 54.7,-184.329
 z
M 162.7,-190.102 L 162.7,-201.65 L 172.7,-207.423 L 182.7,-201.65 L 182.7,-190.102 L 172.7,-184.329
 z
M 91.9,-190.102 L 91.9,-201.65 L 101.9,-207.423 L 111.9,-201.65 L 111.9,-190.102 L 101.9,-184.329
 z
M 68.3,-190.102 L 68.3,-201.65 L 78.3,-207.423 L 88.3,-201.65 L 88.3,-190.102 L 78.3,-184.329
 z
M 233.5,-190.102 L 233.5,-201.65 L 243.5,-207.423 L 253.5,-201.65 L 253.5,-190.102 L 243.5,-184.329
 z
M 115.5,-190.102 L 115.5,-201.65 L 125.5,-207.423 L 135.5,-201.65 L 135.5,-190.102 L 125.5,-184.329
 z
M 209.9,-190.102 L 209.9,-201.65 L 219.9,-207.423 L 229.9,-201.65 L 229.9,-190.102 L 219.9,-184.329
 z
M 186.3,-190.102 L 186.3,-201.65 L 196.3,-207.423 L 206.3,-201.65 L 206.3,-190.102 L 196.3,-184.329
 z
M 139.1,-190.102 L 139.1,-201.65 L 149.1,-207.423 L 159.1,-201.65 L 159.1,-190.102 L 149.1,-184.329
 z
M 103.7,-169.664 L 103.7,-181.211 L 113.7,-186.985 L 123.7,-181.211 L 123.7,-169.664 L 113.7,-163.891
 z
M 198.1,-169.664 L 198.1,-181.211 L 208.1,-186.985 L 218.1,-181.211 L 218.1,-169.664 L 208.1,-163.891
 z
M 127.3,-169.664 L 127.3,-181.211 L 137.3,-186.985 L 147.3,-181.211 L 147.3,-169.664 L 137.3,-163.891
 z
M 221.7,-169.664 L 221.7,-181.211 L 231.7,-186.985 L 241.7,-181.211 L 241.7,-169.664 L 231.7,-163.891
 z
M 150.9,-169.664 L 150.9,-181.211 L 160.9,-186.985 L 170.9,-181.211 L 170.9,-169.664 L 160.9,-163.891
 z
M 80.1,-169.664 L 80.1,-181.211 L 90.1,-186.985 L 100.1,-181.211 L 100.1,-169.664 L 90.1,-163.891
 z
M 245.3,-169.664 L 245.3,-181.211 L 255.3,-186.985 L 265.3,-181.211 L 265.3,-169.664 L 255.3,-163.891
 z
M 56.5,-169.664 L 56.5,-181.211 L 66.5,-186.985 L 76.5,-181.211 L 76.5,-169.664 L 66.5,-163.891
 z
M 174.5,-169.664 L 174.5,-181.211 L 184.5,-186.985 L 194.5,-181.211 L 194.5,-169.664 L 184.5,-163.891
 z
M 68.3,-149.227 L 68.3,-160.773 L 78.3,-166.547 L 88.3,-160.773 L 88.3,-149.227 L 78.3,-143.453
 z
M 44.7,-149.227 L 44.7,-160.773 L 54.7,-166.547 L 64.7,-160.773 L 64.7,-149.227 L 54.7,-143.453
 z
M 91.9,-149.227 L 91.9,-160.773 L 101.9,-166.547 L 111.9,-160.773 L 111.9,-149.227 L 101.9,-143.453
 z
M 233.5,-149.227 L 233.5,-160.773 L 243.5,-166.547 L 253.5,-160.773 L 253.5,-149.227 L 243.5,-143.453
 z
M 115.5,-149.227 L 115.5,-160.773 L 125.5,-166.547 L 135.5,-160.773 L 135.5,-149.227 L 125.5,-143.453
 z
M 209.9,-149.227 L 209.9,-160.773 L 219.9,-166.547 L 229.9,-160.773 L 229.9,-149.227 L 219.9,-143.453
 z
M 186.3,-149.227 L 186.3,-160.773 L 196.3,-166.547 L 206.3,-160.773 L 206.3,-149.227 L 196.3,-143.453
 z
M 162.7,-149.227 L 162.7,-160.773 L 172.7,-166.547 L 182.7,-160.773 L 182.7,-149.227 L 172.7,-143.453
 z
M 139.1,-149.227 L 139.1,-160.773 L 149.1,-166.547 L 159.1,-160.773 L 159.1,-149.227 L 149.1,-143.453
 z
M 80.1,-128.789 L 80.1,-140.336 L 90.1,-146.109 L 100.1,-140.336 L 100.1,-128.789 L 90.1,-123.015
 z
M 245.3,-128.789 L 245.3,-140.336 L 255.3,-146.109 L 265.3,-140.336 L 265.3,-128.789 L 255.3,-123.015
 z
M 127.3,-128.789 L 127.3,-140.336 L 137.3,-146.109 L 147.3,-140.336 L 147.3,-128.789 L 137.3,-123.015
 z
M 221.7,-128.789 L 221.7,-140.336 L 231.7,-146.109 L 241.7,-140.336 L 241.7,-128.789 L 231.7,-123.015
 z
M 56.5,-128.789 L 56.5,-140.336 L 66.5,-146.109 L 76.5,-140.336 L 76.5,-128.789 L 66.5,-123.015
 z
M 103.7,-128.789 L 103.7,-140.336 L 113.7,-146.109 L 123.7,-140.336 L 123.7,-128.789 L 113.7,-123.015
 z
M 150.9,-128.789 L 150.9,-140.336 L 160.9,-146.109 L 170.9,-140.336 L 170.9,-128.789 L 160.9,-123.015
 z
M 174.5,-128.789 L 174.5,-140.336 L 184.5,-146.109 L 194.5,-140.336 L 194.5,-128.789 L 184.5,-123.015
 z
M 198.1,-128.789 L 198.1,-140.336 L 208.1,-146.109 L 218.1,-140.336 L 218.1,-128.789 L 208.1,-123.015
 z
M 162.7,-108.35 L 162.7,-119.898 L 172.7,-125.671 L 182.7,-119.897 L 182.7,-108.35 L 172.7,-102.577
 z
M 186.3,-108.35 L 186.3,-119.897 L 196.3,-125.671 L 206.3,-119.897 L 206.3,-108.35 L 196.3,-102.577
 z
M 139.1,-108.35 L 139.1,-119.898 L 149.1,-125.671 L 159.1,-119.898 L 159.1,-108.35 L 149.1,-102.577
 z
M 44.7,-108.35 L 44.7,-119.898 L 54.7,-125.671 L 64.7,-119.898 L 64.7,-108.35 L 54.7,-102.577
 z
M 209.9,-108.35 L 209.9,-119.897 L 219.9,-125.671 L 229.9,-119.897 L 229.9,-108.35 L 219.9,-102.577
 z
M 233.5,-108.35 L 233.5,-119.897 L 243.5,-125.671 L 253.5,-119.897 L 253.5,-108.35 L 243.5,-102.577
 z
M 115.5,-108.35 L 115.5,-119.898 L 125.5,-125.671 L 135.5,-119.898 L 135.5,-108.35 L 125.5,-102.577
 z
M 68.3,-108.35 L 68.3,-119.898 L 78.3,-125.671 L 88.3,-119.898 L 88.3,-108.35 L 78.3,-102.577
 z
M 91.9,-108.35 L 91.9,-119.898 L 101.9,-125.671 L 111.9,-119.898 L 111.9,-108.35 L 101.9,-102.577
 z
M 245.3,-87.9127 L 245.3,-99.4597 L 255.3,-105.233 L 265.3,-99.4597 L 265.3,-87.9127 L 255.3,-82.1392
 z
M 56.5,-87.9127 L 56.5,-99.4597 L 66.5,-105.233 L 76.5,-99.4597 L 76.5,-87.9127 L 66.5,-82.1392
 z
M 127.3,-87.9127 L 127.3,-99.4597 L 137.3,-105.233 L 147.3,-99.4597 L 147.3,-87.9127 L 137.3,-82.1392
 z
M 80.1,-87.9127 L 80.1,-99.4597 L 90.1,-105.233 L 100.1,-99.4597 L 100.1,-87.9127 L 90.1,-82.1392
 z
M 103.7,-87.9127 L 103.7,-99.4597 L 113.7,-105.233 L 123.7,-99.4597 L 123.7,-87.9127 L 113.7,-82.1392
 z
M 150.9,-87.9127 L 150.9,-99.4597 L 160.9,-105.233 L 170.9,-99.4597 L 170.9,-87.9127 L 160.9,-82.1392
 z
M 174.5,-87.9127 L 174.5,-99.4597 L 184.5,-105.233 L 194.5,-99.4597 L 194.5,-87.9127 L 184.5,-82.1392
 z
M 198.1,-87.9127 L 198.1,-99.4597 L 208.1,-105.233 L 218.1,-99.4597 L 218.1,-87.9127 L 208.1,-82.1392
 z
M 221.7,-87.9127 L 221.7,-99.4597 L 231.7,-105.233 L 241.7,-99.4597 L 241.7,-87.9127 L 231.7,-82.1392
 z
M 139.1,-67.4745 L 139.1,-79.0215 L 149.1,-84.795 L 159.1,-79.0215 L 159.1,-67.4745 L 149.1,-61.701
 z
M 233.5,-67.4745 L 233.5,-79.0215 L 243.5,-84.795 L 253.5,-79.0215 L 253.5,-67.4745 L 243.5,-61.701
 z
M 209.9,-67.4745 L 209.9,-79.0215 L 219.9,-84.795 L 229.9,-79.0215 L 229.9,-67.4745 L 219.9,-61.701
 z
M 186.3,-67.4745 L 186.3,-79.0215 L 196.3,-84.795 L 206.3,-79.0215 L 206.3,-67.4745 L 196.3,-61.701
 z
M 162.7,-67.4745 L 162.7,-79.0215 L 172.7,-84.795 L 182.7,-79.0215 L 182.7,-67.4745 L 172.7,-61.701
 z
M 115.5,-67.4745 L 115.5,-79.0215 L 125.5,-84.795 L 135.5,-79.0215 L 135.5,-67.4745 L 125.5,-61.701
 z
M 91.9,-67.4745 L 91.9,-79.0215 L 101.9,-84.795 L 111.9,-79.0215 L 111.9,-67.4745 L 101.9,-61.701
 z
M 68.3,-67.4745 L 68.3,-79.0215 L 78.3,-84.795 L 88.3,-79.0215 L 88.3,-67.4745 L 78.3,-61.701
 z
M 44.7,-67.4745 L 44.7,-79.0215 L 54.7,-84.795 L 64.7,-79.0215 L 64.7,-67.4745 L 54.7,-61.701
 z
" stroke="black" fill="lightgray" stroke-width="0.5"/>
</svg>
